<svg width="81" height="40" viewBox="0 0 81 40" fill="none" xmlns="http://www.w3.org/2000/svg">
<g clip-path="url(#clip0_287_86)">
<mask id="mask0_287_86" style="mask-type:luminance" maskUnits="userSpaceOnUse" x="0" y="0" width="81" height="40">
<path d="M81 0H0V40H81V0Z" fill="white"/>
</mask>
<g mask="url(#mask0_287_86)">
<path d="M81 0H0V40H81V0Z" fill="#09536A"/>
<path d="M40.5047 7.34386L75.0754 18.0783H5.92505L40.5047 7.34386Z" fill="white"/>
<path d="M75.0571 20.7504H5.94793V21.542H17.624V28.1949C17.624 28.7074 17.6743 29.1649 17.775 29.5631C17.871 29.9794 18.0266 30.3455 18.237 30.6612C18.5115 31.0775 18.8776 31.3887 19.3213 31.5992H15.1762L11.9781 25.7607L15.0893 21.5603H13.0304L10.1114 25.7378V21.5603H8.51921V31.5992H5.94336V32.3908H75.0476V31.5992H73.6845V26.3143H70.4679V28.0073H72.2523C72.2523 28.8721 71.9869 29.4898 71.447 29.8513C71.1176 30.0755 70.7516 30.1899 70.3398 30.1899C69.7038 30.1899 69.1914 29.9565 68.8117 29.4852C68.345 28.9041 68.1071 27.9844 68.1071 26.7307C68.1071 25.477 68.3313 24.5847 68.7705 23.9396C69.164 23.3722 69.6764 23.0931 70.3078 23.0931C70.5732 23.0931 70.834 23.1572 71.0719 23.2899C71.264 23.4134 71.447 23.5735 71.6026 23.7749C71.7307 23.9487 71.8314 24.1364 71.9137 24.3377C71.9869 24.5116 72.0235 24.658 72.0235 24.7678H73.6291C73.5699 23.9076 73.2861 23.1526 72.7876 22.5074C72.4261 22.0591 71.9961 21.7433 71.4974 21.5465H75.0476V20.755L75.0571 20.7504ZM10.1205 31.5946V28.3276L10.8709 27.2981L13.1082 31.5946H10.1205ZM44.8832 26.7628C44.5858 26.4333 44.1237 26.1725 43.506 25.9803L41.6348 25.3535L41.6165 25.3397C41.3786 25.2528 41.2047 25.1567 41.0949 25.0515C40.9165 24.8776 40.825 24.626 40.825 24.2919C40.825 23.8756 40.9714 23.5553 41.2642 23.3402C41.5067 23.1663 41.8041 23.0794 42.1564 23.0794C42.7603 23.0794 43.1949 23.2761 43.4603 23.6651C43.6067 23.8938 43.7028 24.2004 43.7394 24.5939H45.2584C45.2447 23.7749 45.0342 23.0748 44.6362 22.4846C44.3387 22.0499 43.9636 21.7388 43.5106 21.542H48.4885V28.1949C48.4885 28.7074 48.5388 29.1649 48.6395 29.5631C48.7402 29.9794 48.8957 30.3455 49.1016 30.6612C49.3806 31.0775 49.7421 31.3887 50.1905 31.5992H44.1008C44.1466 31.5717 44.1923 31.5535 44.2335 31.5214C45.0708 30.954 45.4963 30.0252 45.4963 28.7257C45.4963 27.87 45.2904 27.2203 44.8787 26.7673L44.8832 26.7628ZM51.5402 30.0709C51.1192 30.0709 50.7898 29.9062 50.5473 29.5721C50.282 29.2244 50.1447 28.712 50.1447 28.0302V21.5374H53.0637V28.1217C53.0637 28.7669 52.9448 29.2428 52.7023 29.5585C52.4552 29.897 52.0663 30.0663 51.5356 30.0663L51.5402 30.0709ZM20.6665 30.0709C20.2455 30.0709 19.9161 29.9062 19.6782 29.5721C19.4128 29.2244 19.2802 28.712 19.2802 28.0302V21.5374H22.1992V28.1217C22.1992 28.7669 22.0802 29.2428 21.8423 29.5585C21.5952 29.897 21.2064 30.0663 20.671 30.0663L20.6665 30.0709ZM28.6091 31.5946V28.3276L29.3594 27.2981L31.5967 31.5946H28.6091ZM30.4758 25.7561L33.587 21.5557H31.5281L28.6091 25.7332V21.5557H27.0169V31.5946H22.19C22.492 31.4436 22.7573 31.2423 22.977 30.986C23.5443 30.3317 23.828 29.3526 23.828 28.0485V21.542H40.976C40.523 21.7296 40.1524 22.0316 39.8733 22.4525C39.5073 23.0016 39.3334 23.6697 39.338 24.4521C39.338 24.9828 39.4066 25.4359 39.5393 25.8111C39.6583 26.1404 39.8413 26.4196 40.0883 26.6484C40.2897 26.8314 40.5459 26.9916 40.857 27.1334C41.0492 27.2112 41.3557 27.3164 41.7674 27.4491L42.5864 27.7236C43.0623 27.8563 43.3917 27.989 43.5747 28.1308C43.8355 28.3322 43.9682 28.6113 43.9682 28.9774C43.9682 29.4578 43.7943 29.8055 43.4466 30.0252C43.1766 30.1899 42.8198 30.2722 42.3714 30.2722C41.7446 30.2722 41.2917 30.0709 41.0171 29.6729C40.8341 29.412 40.7426 29.0735 40.7335 28.6662H39.2008C39.2008 29.5173 39.3975 30.2356 39.791 30.8167C40.0151 31.1462 40.2943 31.407 40.6283 31.6038H33.6693L30.4712 25.7652L30.4758 25.7561ZM59.222 31.5946V24.5024H59.2494L62.2829 31.5946H59.222ZM72.2614 30.469V31.5946H71.502C71.5568 31.558 71.6163 31.526 71.6667 31.4848C72.0601 31.1645 72.2614 30.8259 72.2614 30.469ZM67.3796 22.9696C66.7803 23.9441 66.4829 25.1887 66.4829 26.7033C66.4829 28.3825 66.8352 29.7095 67.5397 30.6841C67.8235 31.0729 68.1392 31.375 68.4869 31.5946H63.9528V21.5557H62.4613V28.6937H62.4521L59.4187 21.5557H57.7259V31.5946H53.0546C53.3566 31.4436 53.6219 31.2423 53.8461 30.986C54.4134 30.3317 54.6971 29.3526 54.6971 28.0485V21.542H68.981C68.3404 21.7982 67.8006 22.2741 67.375 22.9696H67.3796Z" fill="white"/>
</g>
</g>
<defs>
<clipPath id="clip0_287_86">
<rect width="81" height="40" fill="white"/>
</clipPath>
</defs>
</svg>
