<svg width="209" height="40" viewBox="0 0 209 40" fill="none" xmlns="http://www.w3.org/2000/svg">
<g clip-path="url(#clip0_271_145)">
<mask id="mask0_271_145" style="mask-type:luminance" maskUnits="userSpaceOnUse" x="0" y="0" width="209" height="40">
<path d="M209 0H0V40H209V0Z" fill="white"/>
</mask>
<g mask="url(#mask0_271_145)">
<path fill-rule="evenodd" clip-rule="evenodd" d="M23.8011 37.6664C24.3253 37.5888 24.8516 37.5422 25.2316 37.5714C25.861 37.6295 26.5178 37.9108 27.0537 38.2735C27.574 38.6422 28.0028 39.0747 28.1666 39.4549C27.2096 39.7943 25.8494 40.0077 24.7444 40C23.7329 40.0077 22.6065 39.1678 22.1875 38.2329C21.9984 37.81 21.6515 37.8585 21.862 37.3949C22.1387 36.7858 22.5227 36.0041 22.9221 35.49C23.7699 34.4251 25.5921 33.4727 26.469 33.1313C26.0715 33.88 25.637 34.8072 24.9938 35.7538C24.756 36.1029 24.3994 36.458 23.9824 36.7858C23.4893 37.1718 23.1775 37.3386 22.6376 37.6393L22.0335 37.9749L22.5441 37.8915C22.9651 37.8235 23.3821 37.7324 23.8031 37.6683L23.8011 37.6664Z" fill="black"/>
<path fill-rule="evenodd" clip-rule="evenodd" d="M28.0342 36.1418C28.4961 35.977 28.9657 35.8412 29.3185 35.8004C29.9012 35.7403 30.5501 35.88 31.1016 36.1147C31.6395 36.3591 32.1092 36.6753 32.3256 36.9915C31.5148 37.4706 30.3182 37.907 29.3107 38.0952C28.3908 38.2814 27.2157 37.7189 26.668 36.943C26.4205 36.5919 26.1145 36.6966 26.2217 36.2389C26.364 35.6356 26.5725 34.8577 26.8434 34.3184C27.4223 33.1992 28.9092 32.0082 29.6439 31.5426C29.4159 32.2953 29.1879 33.2147 28.7727 34.1904C28.6189 34.5512 28.3577 34.9372 28.0381 35.3096C27.6581 35.75 27.4047 35.9576 26.9681 36.3242L26.479 36.7354L26.9292 36.5686C27.2995 36.4309 27.6619 36.2737 28.0342 36.1418Z" fill="black"/>
<path fill-rule="evenodd" clip-rule="evenodd" d="M31.7334 34.4717C32.1504 34.2157 32.583 33.9848 32.9182 33.8743C33.4756 33.6957 34.1402 33.6978 34.7287 33.8122C35.3056 33.9383 35.8298 34.1517 36.1085 34.4154C35.4166 35.0517 34.3351 35.7267 33.3899 36.1204C32.5304 36.493 31.2617 36.1845 30.564 35.5405C30.2483 35.2476 29.9716 35.4144 29.9794 34.945C29.9911 34.3243 30.0339 33.5192 30.186 32.9373C30.5192 31.7231 31.7236 30.2507 32.3453 29.6417C32.279 30.4253 32.2498 31.3719 32.0471 32.4117C31.9711 32.7958 31.7976 33.2283 31.5618 33.6589C31.2831 34.1671 31.0785 34.4232 30.7277 34.8732L30.336 35.3776L30.7414 35.1215C31.0747 34.9101 31.3982 34.6811 31.7334 34.4756V34.4717Z" fill="black"/>
<path fill-rule="evenodd" clip-rule="evenodd" d="M34.7981 31.8277C35.1644 31.5483 35.5445 31.2904 35.8485 31.1546C36.3513 30.9335 36.973 30.8733 37.5342 30.9237C38.0858 30.9858 38.5964 31.1352 38.8829 31.3563C38.2982 32.0178 37.353 32.751 36.5072 33.2108C35.7394 33.6414 34.5253 33.4746 33.81 32.9392C33.4865 32.6967 33.2429 32.879 33.2059 32.4368C33.1572 31.8568 33.1202 31.1002 33.2059 30.5416C33.3988 29.3758 34.383 27.8822 34.9072 27.2537C34.9209 27.9928 34.9832 28.8793 34.8955 29.8705C34.8624 30.2371 34.7416 30.6561 34.5623 31.0809C34.3499 31.5833 34.1842 31.8413 33.8996 32.2952L33.582 32.8034L33.9367 32.526C34.229 32.2971 34.5077 32.0527 34.802 31.8277H34.7981Z" fill="black"/>
<path fill-rule="evenodd" clip-rule="evenodd" d="M37.4198 28.6756C37.7101 28.3187 38.0201 27.9812 38.2831 27.7775C38.7216 27.4458 39.3102 27.2421 39.8675 27.1607C40.419 27.0947 40.9511 27.1199 41.2805 27.2693C40.8653 28.0471 40.1189 28.9802 39.4037 29.6223C38.7586 30.2196 37.5387 30.338 36.7162 29.983C36.3441 29.822 36.1511 30.0548 36.0127 29.6358C35.8296 29.0829 35.6152 28.3556 35.5684 27.793C35.4846 26.6136 36.0906 24.9338 36.4532 24.2025C36.6402 24.9163 36.9092 25.766 37.0553 26.7514C37.1079 27.1161 37.0904 27.5525 37.0144 28.0064C36.9267 28.5437 36.8234 28.8328 36.6539 29.3409L36.4629 29.9093L36.7416 29.5563C36.9716 29.2653 37.1859 28.9627 37.4198 28.6756Z" fill="black"/>
<path fill-rule="evenodd" clip-rule="evenodd" d="M39.154 24.637C39.3392 24.2161 39.5496 23.8087 39.7484 23.5449C40.0836 23.1104 40.5981 22.7593 41.1145 22.5343C41.629 22.3248 42.1474 22.2104 42.506 22.2666C42.313 23.1259 41.8395 24.2219 41.3192 25.0288C40.8554 25.7737 39.7094 26.2102 38.8227 26.0821C38.4212 26.0239 38.2965 26.2994 38.0509 25.9328C37.7274 25.4478 37.328 24.8019 37.1331 24.2704C36.7394 23.155 36.8797 21.3763 37.0336 20.5751C37.4039 21.2152 37.8872 21.964 38.2887 22.8757C38.4368 23.2132 38.5342 23.6399 38.583 24.0977C38.6395 24.639 38.6181 24.9454 38.5888 25.4789L38.5557 26.0783L38.7311 25.665C38.8753 25.3237 39.002 24.9764 39.152 24.637H39.154Z" fill="black"/>
<path fill-rule="evenodd" clip-rule="evenodd" d="M39.7854 20.0591C39.838 19.6033 39.9199 19.1533 40.0329 18.8409C40.2239 18.3288 40.6137 17.842 41.0405 17.4773C41.4712 17.1262 41.933 16.8663 42.2916 16.8159C42.3598 17.6946 42.2293 18.8798 41.9701 19.8031C41.7459 20.6508 40.7793 21.4015 39.8946 21.5392C39.4931 21.6013 39.4561 21.9019 39.1131 21.6207C38.6609 21.2501 38.0899 20.7497 37.7469 20.2997C37.0414 19.3473 36.6517 17.6054 36.564 16.7945C37.1057 17.2988 37.7897 17.873 38.4426 18.6276C38.6843 18.9069 38.9026 19.2852 39.0838 19.71C39.2982 20.2124 39.3684 20.5111 39.497 21.029L39.6412 21.6109L39.688 21.1648C39.7269 20.7962 39.7445 20.4277 39.7874 20.0611L39.7854 20.0591Z" fill="black"/>
<path fill-rule="evenodd" clip-rule="evenodd" d="M39.3023 15.5045C39.2302 15.0506 39.1834 14.5948 39.2087 14.2651C39.2535 13.7199 39.4952 13.1457 39.807 12.6803C40.1247 12.2264 40.5008 11.85 40.8321 11.7045C41.1381 12.5309 41.3349 13.7084 41.3388 14.6665C41.3544 15.5433 40.6294 16.5268 39.8128 16.8973C39.4445 17.0661 39.4893 17.3648 39.082 17.1864C38.5461 16.9516 37.8601 16.6257 37.408 16.2844C36.4706 15.5589 35.6189 13.9877 35.313 13.2311C35.9717 13.5706 36.7863 13.9372 37.6204 14.4881C37.9284 14.6917 38.2421 14.9983 38.5325 15.3571C38.8755 15.7819 39.0236 16.0516 39.2906 16.5151L39.5888 17.037L39.5108 16.5947C39.4465 16.23 39.3646 15.8692 39.3042 15.5045H39.3023Z" fill="black"/>
<path fill-rule="evenodd" clip-rule="evenodd" d="M37.3829 11.0567C37.2113 10.6668 37.0652 10.2691 37.0087 9.96852C36.921 9.47 37.0047 8.89965 37.1743 8.40893C37.3536 7.9298 37.603 7.50499 37.8662 7.29938C38.3339 7.97053 38.786 8.97921 39.0101 9.83852C39.2284 10.6222 38.8075 11.6716 38.1623 12.1915C37.87 12.4282 37.9811 12.6842 37.5758 12.6202C37.0398 12.5348 36.35 12.399 35.8627 12.1992C34.8513 11.7647 33.7229 10.5543 33.2727 9.94521C33.9431 10.0965 34.7577 10.2382 35.6348 10.5388C35.9582 10.6494 36.311 10.8511 36.654 11.1071C37.0613 11.4097 37.2562 11.6154 37.603 11.9703L37.9909 12.368L37.8193 11.9897C37.6771 11.6775 37.5192 11.3729 37.3809 11.0606L37.3829 11.0567Z" fill="black"/>
<path fill-rule="evenodd" clip-rule="evenodd" d="M34.6584 7.54955C34.372 7.23532 34.103 6.90555 33.9529 6.63787C33.7093 6.19172 33.6061 5.62725 33.608 5.10739C33.6236 4.59528 33.7229 4.11422 33.9042 3.8349C34.5629 4.32178 35.3152 5.1326 35.8063 5.87553C36.2643 6.54864 36.2038 7.67564 35.7615 8.3759C35.5607 8.69208 35.7478 8.90154 35.3424 8.96946C34.8085 9.05867 34.1088 9.1518 33.5845 9.11685C32.4874 9.02763 31.0277 8.24012 30.406 7.80754C31.09 7.73772 31.9085 7.61163 32.8342 7.61745C33.1773 7.61939 33.5768 7.69892 33.9841 7.83082C34.4655 7.986 34.7188 8.11985 35.1612 8.3468L35.6582 8.59897L35.3736 8.29443C35.1379 8.0442 34.8903 7.80754 34.6584 7.55344V7.54955Z" fill="black"/>
<path fill-rule="evenodd" clip-rule="evenodd" d="M31.5147 5.28005C31.2029 5.04728 30.9047 4.79705 30.7234 4.58173C30.4273 4.22288 30.2363 3.73405 30.1486 3.26657C30.0745 2.8049 30.0784 2.35682 30.1934 2.07361C30.8676 2.39756 31.6862 2.99694 32.2552 3.57887C32.7834 4.10261 32.9237 5.12681 32.6489 5.83095C32.5242 6.14907 32.7289 6.30425 32.3761 6.43616C31.9123 6.60879 31.3004 6.81247 30.8229 6.87066C29.8231 6.97929 28.3751 6.52344 27.7417 6.24217C28.344 6.06178 29.0553 5.80767 29.8874 5.65249C30.1954 5.59623 30.5676 5.59817 30.9554 5.64667C31.4153 5.70292 31.6648 5.78051 32.1013 5.9066L32.5905 6.0482L32.2826 5.82513C32.0292 5.64085 31.7642 5.47015 31.5128 5.28199L31.5147 5.28005Z" fill="black"/>
<path fill-rule="evenodd" clip-rule="evenodd" d="M28.1197 3.62547C27.8546 3.42762 27.6032 3.21618 27.4492 3.03384C27.1978 2.73124 27.0361 2.31419 26.9621 1.92042C26.8996 1.52858 26.9036 1.14839 27.001 0.90979C27.574 1.18524 28.2658 1.69152 28.7472 2.18422C29.1954 2.62843 29.3143 3.49551 29.0805 4.09296C28.9752 4.36258 29.1487 4.49449 28.8485 4.60506C28.4549 4.75054 27.9365 4.92318 27.5331 4.97362C26.6853 5.06672 25.4595 4.67876 24.9216 4.44017C25.4322 4.28694 26.0344 4.07162 26.7398 3.94165C27.001 3.89316 27.3168 3.8951 27.6461 3.93583C28.0358 3.98433 28.2483 4.04834 28.6186 4.15697L29.0336 4.27723L28.7725 4.08714C28.5562 3.93196 28.334 3.78648 28.1197 3.62742V3.62547Z" fill="black"/>
<path fill-rule="evenodd" clip-rule="evenodd" d="M24.9917 2.19582C24.717 2.07168 24.4519 1.93201 24.2804 1.8001C23.9978 1.57897 23.7718 1.24145 23.6275 0.90587C23.495 0.570292 23.4229 0.230833 23.4638 0C24.027 0.131904 24.7422 0.448087 25.2665 0.793366C25.7518 1.10179 26.0285 1.8486 25.9388 2.42471C25.8979 2.68464 26.0772 2.76805 25.8336 2.92517C25.512 3.13079 25.0872 3.38683 24.7364 3.50904C24.0017 3.75539 22.8363 3.65064 22.3101 3.54396C22.733 3.30924 23.228 3.00083 23.8283 2.74671C24.0504 2.65361 24.3311 2.59347 24.6312 2.56631C24.9878 2.53334 25.1885 2.54886 25.5374 2.57214L25.9291 2.59735L25.6602 2.47903C25.438 2.38203 25.2099 2.29863 24.9898 2.19776L24.9917 2.19582Z" fill="black"/>
<path fill-rule="evenodd" clip-rule="evenodd" d="M18.7052 37.6664C18.181 37.5888 17.6548 37.5422 17.2748 37.5714C16.6453 37.6295 15.9886 37.9108 15.4526 38.2735C14.9343 38.6422 14.5036 39.0747 14.3398 39.4549C15.2967 39.7943 16.657 40.0077 17.762 40C18.7734 40.0077 19.8999 39.1678 20.3189 38.2329C20.508 37.81 20.8548 37.8585 20.6443 37.3949C20.3676 36.7858 19.9837 36.0041 19.5842 35.49C18.7364 34.4251 16.9143 33.4727 16.0373 33.1313C16.4348 33.88 16.8694 34.8072 17.5126 35.7538C17.7503 36.1029 18.107 36.458 18.524 36.7858C19.0171 37.1718 19.3288 37.3386 19.8687 37.6393L20.4729 37.9749L19.9623 37.8915C19.5413 37.8235 19.1243 37.7324 18.7033 37.6683L18.7052 37.6664Z" fill="black"/>
<path fill-rule="evenodd" clip-rule="evenodd" d="M14.4701 36.1418C14.0082 35.977 13.5385 35.8412 13.1858 35.8004C12.603 35.7403 11.9541 35.88 11.4026 36.1147C10.8647 36.3591 10.395 36.6753 10.1787 36.9915C10.9894 37.4706 12.186 37.907 13.1935 38.0952C14.1134 38.2814 15.2886 37.7189 15.8362 36.943C16.0837 36.5919 16.3897 36.6966 16.2825 36.2389C16.1402 35.6356 15.9317 34.8577 15.6608 34.3184C15.082 33.1992 13.595 32.0082 12.8603 31.5426C13.0883 32.2953 13.3163 33.2147 13.7314 34.1904C13.8854 34.5512 14.1466 34.9372 14.4662 35.3096C14.8462 35.75 15.0995 35.9576 15.5361 36.3242L16.0252 36.7354L15.575 36.5686C15.2047 36.4309 14.8423 36.2737 14.4701 36.1418Z" fill="black"/>
<path fill-rule="evenodd" clip-rule="evenodd" d="M10.7729 34.4717C10.3558 34.2157 9.9232 33.9848 9.58793 33.8743C9.0306 33.6957 8.36604 33.6978 7.77749 33.8122C7.20063 33.9383 6.67639 34.1517 6.39771 34.4154C7.08955 35.0517 8.17116 35.7267 9.11638 36.1204C9.9758 36.493 11.2445 36.1845 11.9421 35.5405C12.2579 35.2476 12.5347 35.4144 12.5268 34.945C12.5152 34.3243 12.4722 33.5192 12.3203 32.9373C11.987 31.7231 10.7826 30.2507 10.1589 29.6417C10.2252 30.4253 10.2564 31.3719 10.4571 32.4117C10.5331 32.7958 10.7066 33.2283 10.9424 33.6589C11.2211 34.1671 11.4257 34.4232 11.7765 34.8732L12.1682 35.3776L11.7628 35.1215C11.4297 34.9101 11.1061 34.6811 10.7709 34.4756L10.7729 34.4717Z" fill="black"/>
<path fill-rule="evenodd" clip-rule="evenodd" d="M7.70734 31.8277C7.34291 31.5483 6.96094 31.2904 6.65886 31.1546C6.15606 30.9335 5.53438 30.8733 4.97311 30.9237C4.42159 30.9858 3.91099 31.1352 3.62451 31.3563C4.20916 32.0178 5.15436 32.751 6.00015 33.2108C6.768 33.6414 7.98213 33.4746 8.69736 32.9392C9.02088 32.6967 9.26446 32.879 9.30147 32.4368C9.35023 31.8568 9.38724 31.1002 9.30147 30.5416C9.10858 29.3758 8.1244 27.8822 7.6021 27.2537C7.58846 27.9928 7.52415 28.8793 7.6138 29.8705C7.64693 30.2371 7.76775 30.6561 7.94705 31.0809C8.15947 31.5833 8.32512 31.8413 8.60966 32.2952L8.92736 32.8034L8.57263 32.526C8.2803 32.2971 8.00162 32.0527 7.70734 31.8277Z" fill="black"/>
<path fill-rule="evenodd" clip-rule="evenodd" d="M5.086 28.6756C4.79562 28.3187 4.48576 27.9812 4.22266 27.7775C3.78417 27.4458 3.19562 27.2421 2.63825 27.1607C2.08673 27.0947 1.55469 27.1199 1.22534 27.2693C1.64044 28.0471 2.38685 28.9802 3.10207 29.6223C3.74714 30.2196 4.96712 30.338 5.78954 29.983C6.16177 29.822 6.3547 30.0548 6.49306 29.6358C6.67626 29.0829 6.89063 28.3556 6.9374 27.793C7.0212 26.6136 6.41512 24.9338 6.05262 24.2025C5.86554 24.9163 5.59659 25.766 5.45238 26.7514C5.39782 27.1161 5.41731 27.5525 5.49331 28.0064C5.58101 28.5437 5.6843 28.8328 5.85385 29.3409L6.04483 29.9093L5.76615 29.5563C5.53618 29.2653 5.32181 28.9627 5.08795 28.6756H5.086Z" fill="black"/>
<path fill-rule="evenodd" clip-rule="evenodd" d="M3.35201 24.637C3.16687 24.2161 2.9564 23.8087 2.75762 23.5449C2.42241 23.1104 1.90792 22.7593 1.39148 22.5343C0.876981 22.3248 0.356638 22.2104 0 22.2666C0.192936 23.1259 0.666505 24.2219 1.18685 25.0288C1.65067 25.7737 2.79659 26.2102 3.68332 26.0821C4.08478 26.0239 4.2095 26.2994 4.45506 25.9328C4.77857 25.4478 5.17808 24.8019 5.37296 24.2704C5.76663 23.155 5.62631 21.3763 5.47236 20.5751C5.10207 21.2152 4.61876 21.964 4.2173 22.8757C4.06919 23.2132 3.97175 23.6399 3.92303 24.0977C3.86651 24.639 3.88795 24.9454 3.91718 25.4789L3.95031 26.0783L3.77491 25.665C3.6307 25.3237 3.50402 24.9764 3.35396 24.637H3.35201Z" fill="black"/>
<path fill-rule="evenodd" clip-rule="evenodd" d="M2.72067 20.0591C2.66806 19.6033 2.5862 19.1533 2.47317 18.8409C2.28218 18.3288 1.89242 17.842 1.46562 17.4773C1.03492 17.1262 0.573046 16.8663 0.214459 16.8159C0.146249 17.6946 0.276822 18.8798 0.536018 19.8031C0.760135 20.6508 1.72677 21.4015 2.61154 21.5392C3.013 21.6013 3.05003 21.9019 3.39303 21.6207C3.84515 21.2501 4.41617 20.7497 4.75916 20.2997C5.46464 19.3473 5.85442 17.6054 5.94211 16.7945C5.40033 17.2988 4.71629 17.873 4.06538 18.6276C3.82372 18.9069 3.60545 19.2852 3.4242 19.71C3.20984 20.2124 3.13967 20.5111 3.01105 21.029L2.86683 21.6109L2.82006 21.1648C2.78109 20.7962 2.76354 20.4277 2.72067 20.0611V20.0591Z" fill="black"/>
<path fill-rule="evenodd" clip-rule="evenodd" d="M3.20232 15.5045C3.27443 15.0506 3.3212 14.5948 3.29781 14.2651C3.25299 13.7199 3.01134 13.1457 2.69952 12.6803C2.38186 12.2264 2.00573 11.85 1.67637 11.7045C1.37041 12.5309 1.17357 13.7084 1.16968 14.6665C1.15408 15.5433 1.881 16.5268 2.69562 16.8973C3.06395 17.0661 3.01913 17.3648 3.42644 17.1864C3.96237 16.9516 4.64836 16.6257 5.1005 16.2844C6.03984 15.5589 6.88954 13.9877 7.19551 13.2311C6.5368 13.5706 5.72218 13.9372 4.88808 14.4881C4.58016 14.6917 4.26639 14.9983 3.97601 15.3571C3.63301 15.7819 3.4849 16.0516 3.21791 16.5151L2.91974 17.037L2.99575 16.5947C3.06006 16.23 3.14191 15.8692 3.20232 15.5045Z" fill="black"/>
<path fill-rule="evenodd" clip-rule="evenodd" d="M5.12172 11.0567C5.29323 10.6668 5.43939 10.2691 5.4959 9.96852C5.58361 9.47 5.49981 8.89965 5.33025 8.40893C5.15096 7.9298 4.90151 7.50499 4.64036 7.29938C4.17459 7.97053 3.72245 8.97921 3.49639 9.83852C3.27812 10.6222 3.69907 11.6716 4.34414 12.1915C4.63646 12.4282 4.52538 12.6842 4.93074 12.6202C5.46667 12.5348 6.15851 12.399 6.64378 12.1992C7.65327 11.7647 8.78363 10.5543 9.23376 9.94521C8.56339 10.0965 7.74877 10.2382 6.87179 10.5388C6.54828 10.6494 6.19554 10.8511 5.85255 11.1071C5.44523 11.4097 5.25035 11.6154 4.90346 11.9703L4.51563 12.368L4.68713 11.9897C4.8294 11.6775 4.98726 11.3729 5.12563 11.0606L5.12172 11.0567Z" fill="black"/>
<path fill-rule="evenodd" clip-rule="evenodd" d="M7.84563 7.54955C8.13212 7.23532 8.40105 6.90555 8.55112 6.63787C8.7947 6.19172 8.89798 5.62725 8.89606 5.10739C8.88047 4.59528 8.78111 4.11422 8.59983 3.8349C7.94112 4.32178 7.18887 5.1326 6.69777 5.87553C6.23783 6.54864 6.30019 7.67564 6.74259 8.3759C6.94331 8.69208 6.75428 8.90154 7.16159 8.96946C7.69557 9.05867 8.3952 9.1518 8.91949 9.11685C10.0167 9.02763 11.4763 8.24012 12.098 7.80754C11.414 7.73772 10.5955 7.61163 9.66971 7.61745C9.32678 7.61939 8.92915 7.69892 8.51993 7.83082C8.03857 7.986 7.78522 8.11985 7.34283 8.3468L6.84588 8.59897L7.1304 8.29443C7.36427 8.0442 7.61372 7.80754 7.84563 7.55344V7.54955Z" fill="black"/>
<path fill-rule="evenodd" clip-rule="evenodd" d="M10.9912 5.28005C11.3031 5.04728 11.6012 4.79705 11.7825 4.58173C12.0787 4.22288 12.2697 3.73405 12.3574 3.26657C12.4314 2.8049 12.4276 2.35682 12.3125 2.07361C11.6363 2.39756 10.8198 2.99694 10.2507 3.57887C9.7226 4.10261 9.5803 5.12681 9.85705 5.83095C9.98176 6.14907 9.77711 6.30425 10.1299 6.43616C10.5937 6.60879 11.2056 6.81247 11.6831 6.87066C12.6828 6.97929 14.1308 6.52344 14.7642 6.24217C14.162 6.06178 13.4507 5.80767 12.6186 5.65249C12.3106 5.59623 11.9384 5.59817 11.5506 5.64667C11.0907 5.70292 10.8412 5.78051 10.4046 5.9066L9.91549 6.0482L10.2234 5.82513C10.4767 5.64085 10.7418 5.47015 10.9932 5.28199L10.9912 5.28005Z" fill="black"/>
<path fill-rule="evenodd" clip-rule="evenodd" d="M14.3862 3.62547C14.6513 3.42762 14.9027 3.21618 15.0567 3.03384C15.3081 2.73124 15.4698 2.31419 15.5439 1.92042C15.6063 1.52858 15.6024 1.14839 15.5049 0.90979C14.932 1.18524 14.2401 1.69152 13.7587 2.18422C13.3105 2.62843 13.1916 3.49551 13.4255 4.09296C13.5307 4.36258 13.3573 4.49449 13.6574 4.60506C14.0511 4.75054 14.5695 4.92318 14.9729 4.97362C15.8206 5.06672 17.0465 4.67876 17.5844 4.44017C17.0737 4.28694 16.4715 4.07162 15.7661 3.94165C15.5049 3.89316 15.1892 3.8951 14.8599 3.93583C14.4701 3.98433 14.2576 4.04834 13.8893 4.15697L13.4742 4.27723L13.7354 4.08714C13.9517 3.93196 14.1738 3.78648 14.3882 3.62742L14.3862 3.62547Z" fill="black"/>
<path fill-rule="evenodd" clip-rule="evenodd" d="M17.5142 2.19582C17.789 2.07168 18.054 1.93201 18.2255 1.8001C18.5081 1.57897 18.7342 1.24145 18.8784 0.90587C19.0109 0.570292 19.083 0.230833 19.0421 0C18.4789 0.131904 17.7637 0.448087 17.2395 0.793366C16.7541 1.10179 16.4774 1.8486 16.5671 2.42471C16.608 2.68464 16.4287 2.76805 16.6723 2.92517C16.9939 3.13079 17.4187 3.38683 17.7695 3.50904C18.5043 3.75539 19.6696 3.65064 20.1958 3.54396C19.7729 3.30924 19.2779 3.00083 18.6776 2.74671C18.4555 2.65361 18.1749 2.59347 17.8747 2.56631C17.5181 2.53334 17.3174 2.54886 16.9685 2.57214L16.5768 2.59735L16.8458 2.47903C17.0679 2.38203 17.296 2.29863 17.5161 2.19776L17.5142 2.19582Z" fill="black"/>
<path d="M21.2522 5.38672C25.183 5.38672 28.7416 6.97345 31.318 9.53785C33.8944 12.1022 35.4885 15.6442 35.4885 19.5567C35.4885 23.4692 33.8944 27.0112 31.318 29.5757C28.7416 32.14 25.183 33.7267 21.2522 33.7267C17.3214 33.7267 13.7628 32.14 11.1864 29.5757C8.61003 27.0112 7.01587 23.4692 7.01587 19.5567C7.01587 15.6442 8.61003 12.1003 11.1864 9.53785C13.7628 6.97345 17.3214 5.38672 21.2522 5.38672ZM30.9282 9.92776C28.4512 7.46421 25.031 5.93955 21.2541 5.93955C17.4772 5.93955 14.0551 7.46421 11.58 9.92776C9.10305 12.3932 7.57324 15.7975 7.57324 19.5567C7.57324 23.316 9.10505 26.7203 11.58 29.1858C14.057 31.6492 17.4772 33.1739 21.2541 33.1739C25.031 33.1739 28.4531 31.6492 30.9282 29.1858C33.4052 26.7203 34.935 23.316 34.935 19.5567C34.935 15.7975 33.4032 12.3932 30.9282 9.92776Z" fill="black"/>
<path fill-rule="evenodd" clip-rule="evenodd" d="M21.2524 36.3513C21.9794 36.3513 22.566 36.9371 22.566 37.6587C22.566 38.3803 21.9774 38.9661 21.2524 38.9661C20.5275 38.9661 19.939 38.3803 19.939 37.6587C19.939 36.9371 20.5275 36.3513 21.2524 36.3513Z" fill="black"/>
<path d="M21.252 36.2446C21.6437 36.2446 22.0003 36.4037 22.2576 36.6598C22.5148 36.9158 22.6747 37.2688 22.6747 37.6606C22.6747 38.0525 22.5148 38.4055 22.2576 38.6616C22.0003 38.9176 21.6456 39.0766 21.252 39.0766C20.8583 39.0766 20.5036 38.9176 20.2464 38.6616C19.9891 38.4055 19.8293 38.0525 19.8293 37.6606C19.8293 37.2688 19.9891 36.9158 20.2464 36.6598C20.5036 36.4037 20.8583 36.2446 21.252 36.2446ZM22.1075 36.8091C21.8893 36.5918 21.5872 36.456 21.2539 36.456C20.9207 36.456 20.6187 36.5898 20.4004 36.8091C20.1821 37.0264 20.0457 37.327 20.0457 37.6587C20.0457 37.9904 20.1801 38.2911 20.4004 38.5083C20.6187 38.7256 20.9207 38.8613 21.2539 38.8613C21.5872 38.8613 21.8893 38.7275 22.1075 38.5083C22.3259 38.2911 22.4622 37.9904 22.4622 37.6587C22.4622 37.327 22.3278 37.0264 22.1075 36.8091Z" fill="black"/>
<path fill-rule="evenodd" clip-rule="evenodd" d="M21.2521 0.991211C21.6496 0.991211 21.9731 1.31321 21.9731 1.70892C21.9731 2.10464 21.6496 2.42665 21.2521 2.42665C20.8545 2.42665 20.531 2.10658 20.531 1.70892C20.531 1.31127 20.8545 0.991211 21.2521 0.991211Z" fill="black"/>
<path d="M10.6867 14.3018L11.1993 14.5928C11.2344 14.6122 11.2617 14.62 11.2831 14.6181C11.3045 14.6161 11.3279 14.6006 11.3552 14.5735L11.3961 14.5967L11.1915 14.9555L11.1506 14.9322C11.1603 14.8955 11.1623 14.8682 11.1526 14.8488C11.1447 14.8295 11.1233 14.8101 11.0882 14.7907L9.66169 13.9798C9.62659 13.9604 9.59733 13.9508 9.57791 13.9527C9.55641 13.9546 9.53307 13.9701 9.50773 13.9973L9.4668 13.9741L9.67144 13.6152L9.71237 13.6384C9.70262 13.6753 9.70061 13.7025 9.70845 13.7219C9.7162 13.7413 9.73771 13.7607 9.77472 13.7801L10.4919 14.1874L10.295 12.847C10.2892 12.8005 10.2775 12.7714 10.262 12.7636C10.2424 12.7539 10.2229 12.7636 10.1995 12.7908L10.1587 12.7675L10.4178 12.3135L10.4588 12.3368C10.4334 12.3892 10.4256 12.4513 10.4353 12.5211L10.5776 13.5279L11.9945 13.3145C12.0295 13.3106 12.0548 13.3009 12.0704 13.2893C12.088 13.2776 12.1075 13.2563 12.1269 13.2253L12.1679 13.2486L11.9282 13.6675L11.8873 13.6442C11.8989 13.6035 11.897 13.5783 11.8814 13.5706C11.8717 13.5648 11.8308 13.5667 11.7625 13.5764L10.6069 13.7432L10.6867 14.2999V14.3018Z" fill="black"/>
<path d="M11.6597 11.3031C11.8507 11.0858 12.0612 10.9597 12.2932 10.9268C12.5386 10.8899 12.7589 10.9577 12.9577 11.1304C13.0805 11.2391 13.1643 11.371 13.2052 11.53C13.2831 11.8307 13.1954 12.1255 12.9421 12.4145C12.753 12.6298 12.5426 12.7559 12.3107 12.789C12.0651 12.8257 11.8469 12.7598 11.6559 12.5931C11.5273 12.4805 11.4415 12.3447 11.3986 12.1857C11.3538 12.0169 11.3655 11.8462 11.4317 11.6697C11.4766 11.5494 11.5545 11.4272 11.6597 11.3011V11.3031ZM11.7864 11.4137C11.6305 11.5902 11.5604 11.7822 11.574 11.9839C11.5857 12.1604 11.6597 12.3098 11.7981 12.4281C11.9345 12.5484 12.0923 12.6008 12.2716 12.5891C12.4763 12.5756 12.6575 12.4805 12.8135 12.302C12.9713 12.1236 13.0415 11.9316 13.0278 11.7278C13.0161 11.5513 12.944 11.4039 12.8115 11.2895C12.6673 11.1634 12.5075 11.1091 12.3321 11.1227C12.1294 11.1382 11.9462 11.2332 11.7883 11.4117L11.7864 11.4137Z" fill="black"/>
<path d="M13.5788 10.6959L13.9316 11.1459C13.9569 11.177 13.9784 11.1944 13.9998 11.2003C14.0193 11.2061 14.0485 11.2003 14.0835 11.1867L14.1089 11.2177L13.799 11.4602L13.7737 11.4291C13.797 11.3981 13.8088 11.3729 13.8088 11.3516C13.8088 11.3303 13.7951 11.305 13.7698 11.274L12.9688 10.2556C12.9435 10.2245 12.9201 10.2051 12.9006 10.1993C12.8811 10.1935 12.8538 10.1993 12.8187 10.2149L12.7954 10.1838L13.5574 9.59026C13.6431 9.52235 13.7191 9.47383 13.7835 9.44287C13.8477 9.41183 13.9121 9.39626 13.9744 9.39244C14.1128 9.38661 14.2278 9.44287 14.3233 9.56313C14.3993 9.662 14.4305 9.76287 14.4129 9.86766C14.3954 9.97235 14.331 10.0771 14.22 10.1819L14.9411 10.4398C14.9664 10.4477 14.9859 10.4515 15.0034 10.4496C15.019 10.4477 15.0424 10.4379 15.0736 10.4185L15.0989 10.4496L14.7813 10.6978L14.7578 10.6668C14.7832 10.6377 14.791 10.6164 14.7793 10.6028C14.7715 10.5931 14.7481 10.5815 14.7092 10.5679L14.0485 10.3351L13.5827 10.6978L13.5788 10.6959ZM13.4814 10.5717L13.9686 10.1916C14.0465 10.1295 14.1031 10.081 14.1381 10.0442C14.1732 10.0073 14.1986 9.97044 14.2142 9.93557C14.2473 9.856 14.2336 9.77453 14.1673 9.69113C14.105 9.61157 14.029 9.57279 13.9413 9.5767C13.8595 9.58053 13.7581 9.63096 13.6334 9.726L13.1267 10.1217L13.4814 10.5717Z" fill="black"/>
<path d="M15.2221 9.5049L15.5106 10.0325L16.3953 9.55342C16.4304 9.53403 16.4538 9.51463 16.4635 9.49524C16.4733 9.47585 16.4714 9.44872 16.4635 9.41185L16.4986 9.39246L16.6623 9.69507L16.6272 9.71446C16.6019 9.68724 16.5785 9.66985 16.5591 9.66785C16.5376 9.66403 16.5103 9.67368 16.4752 9.69307L15.3254 10.3158L15.3059 10.2808C15.3352 10.2537 15.3508 10.2304 15.3527 10.211C15.3546 10.1897 15.3469 10.1625 15.3273 10.1276L14.7057 8.9909C14.6862 8.95594 14.6667 8.93272 14.6472 8.92498C14.6277 8.91716 14.6005 8.91716 14.5635 8.92498L14.5439 8.89003L15.686 8.27318C15.7211 8.25378 15.7444 8.23439 15.7522 8.21499C15.76 8.19559 15.76 8.16843 15.7522 8.13158L15.7873 8.11218L15.951 8.41284L15.9159 8.43224C15.8886 8.40315 15.8653 8.38763 15.8458 8.38569C15.8262 8.38181 15.797 8.39151 15.762 8.4109L14.885 8.8842L15.148 9.36524L15.7074 9.06263C15.7425 9.04324 15.7658 9.02385 15.7736 9.00637C15.7814 8.98698 15.7814 8.95985 15.7736 8.92298L15.8087 8.90359L15.9725 9.20429L15.9374 9.22368C15.912 9.19655 15.8867 9.18098 15.8672 9.17716C15.8458 9.17516 15.8185 9.1829 15.7834 9.20037L15.2241 9.50298L15.2221 9.5049Z" fill="black"/>
<path d="M17.8433 8.68043L17.0365 8.95975L17.0111 9.25654C17.0072 9.29341 17.0091 9.31862 17.015 9.3361C17.0267 9.36715 17.0579 9.38071 17.1105 9.3768L17.1222 9.41367L16.7441 9.54558L16.7305 9.50871C16.7656 9.48932 16.789 9.46601 16.8007 9.43497C16.8142 9.40593 16.8221 9.35349 16.8298 9.28175L16.9546 8.00346C16.9624 7.93169 16.9605 7.88513 16.9546 7.8638C16.9429 7.83275 16.9137 7.82112 16.8649 7.82888L16.8513 7.79202L17.2976 7.63684L17.3112 7.67369C17.2684 7.69891 17.2528 7.72801 17.2625 7.7571C17.2684 7.77456 17.3035 7.81724 17.3677 7.88513L18.2272 8.77549C18.2857 8.83367 18.3304 8.87245 18.3636 8.88993C18.3967 8.90741 18.4318 8.91323 18.4708 8.90549L18.4844 8.94228L18.083 9.08002L18.0694 9.04315C18.1083 9.01993 18.1239 8.99662 18.1181 8.97532C18.1141 8.96367 18.0927 8.93845 18.0538 8.89575L17.8452 8.68043H17.8433ZM17.7283 8.55435L17.13 7.92005L17.0521 8.78906L17.7283 8.55435Z" fill="black"/>
<path d="M20.8271 7.07436L20.6985 7.40412L20.6614 7.39054C20.6634 7.36145 20.6634 7.34205 20.6614 7.33234C20.6595 7.30908 20.6244 7.28386 20.5582 7.25864C20.4179 7.20044 20.2521 7.18105 20.0612 7.20044C19.9072 7.21596 19.7806 7.2567 19.6792 7.32459C19.5779 7.39248 19.5311 7.47783 19.5428 7.58064C19.5467 7.6272 19.5643 7.66599 19.5955 7.7009C19.6266 7.73582 19.6656 7.75716 19.7123 7.7688C19.7592 7.78043 19.8098 7.78432 19.8625 7.78432C19.9151 7.78432 20.03 7.77849 20.2054 7.7688C20.3516 7.7591 20.4626 7.75716 20.5387 7.76298C20.6147 7.7688 20.6809 7.78432 20.7375 7.80954C20.7979 7.83474 20.8466 7.87742 20.8856 7.93368C20.9245 7.98993 20.9479 8.05395 20.9538 8.12572C20.9694 8.27508 20.9187 8.39922 20.8057 8.50009C20.6693 8.61841 20.4802 8.69019 20.2366 8.7154C20.1177 8.72705 19.9891 8.72122 19.8546 8.69792C19.7202 8.67467 19.5915 8.63588 19.4727 8.5835C19.4571 8.57575 19.4453 8.57186 19.4376 8.57186C19.422 8.57186 19.4025 8.5932 19.3771 8.62812L19.342 8.61066L19.496 8.28478L19.5331 8.30223C19.5331 8.31388 19.5292 8.32163 19.5292 8.32551C19.5253 8.34103 19.5253 8.35461 19.5253 8.36431C19.5292 8.39147 19.5818 8.42638 19.6851 8.46712C19.8604 8.53888 20.0358 8.56604 20.2151 8.54859C20.3789 8.53307 20.5114 8.49233 20.6128 8.42444C20.6614 8.39147 20.7005 8.35267 20.7258 8.30417C20.7531 8.25568 20.7628 8.20719 20.7589 8.15675C20.755 8.1102 20.7375 8.07141 20.7082 8.03648C20.6789 8.00157 20.6419 7.98023 20.5972 7.9686C20.5562 7.95889 20.5114 7.95308 20.4626 7.95308C20.414 7.95308 20.3204 7.95695 20.186 7.96471C20.0261 7.97441 19.9111 7.97635 19.8409 7.97441C19.7708 7.97248 19.7046 7.96277 19.6422 7.94726C19.5623 7.92592 19.496 7.88712 19.4415 7.83087C19.3888 7.77074 19.3576 7.69702 19.348 7.60974C19.3323 7.45455 19.3908 7.32653 19.5233 7.22372C19.6578 7.11897 19.8371 7.0569 20.0593 7.03556C20.2619 7.01616 20.4705 7.04138 20.6829 7.11121C20.714 7.12091 20.7335 7.1248 20.7375 7.1248C20.7531 7.1248 20.7686 7.10346 20.7861 7.0666L20.8232 7.08018L20.8271 7.07436Z" fill="black"/>
<path d="M21.6321 7.86963L21.5911 8.46902L22.5948 8.53497C22.6357 8.53691 22.665 8.53497 22.6825 8.52139C22.7001 8.50975 22.7136 8.48648 22.7254 8.44962H22.7663L22.7429 8.79486H22.702C22.6961 8.75416 22.6845 8.72895 22.6689 8.71538C22.6533 8.70182 22.626 8.69403 22.585 8.69015L21.2793 8.60286V8.56407C21.3202 8.55631 21.3456 8.54467 21.3592 8.52915C21.3729 8.51363 21.3807 8.48454 21.3827 8.44574L21.4684 7.15385C21.4704 7.11312 21.4684 7.08402 21.4548 7.06656C21.443 7.0491 21.4197 7.03553 21.3827 7.02195V6.98315L22.6806 7.0685C22.7215 7.07044 22.7507 7.0685 22.7682 7.05493C22.7858 7.04329 22.7994 7.02001 22.8131 6.98315H22.852L22.8287 7.32843H22.7897C22.7819 7.28769 22.7702 7.26249 22.7546 7.2489C22.739 7.23533 22.7117 7.22756 22.6708 7.22562L21.6749 7.15968L21.6379 7.70669L22.2733 7.74936C22.3142 7.7513 22.3434 7.74936 22.359 7.73579C22.3765 7.72415 22.3921 7.70087 22.4038 7.66402H22.4428L22.4194 8.00929H22.3805C22.3726 7.96855 22.361 7.94334 22.3454 7.92976C22.3298 7.91618 22.3005 7.90842 22.2616 7.90649L21.6282 7.86381L21.6321 7.86963Z" fill="black"/>
<path d="M23.9821 8.9695L23.6528 7.47393L23.3526 8.63973C23.3428 8.67853 23.3409 8.70759 23.3487 8.72698C23.3565 8.74646 23.3779 8.76585 23.4111 8.78324L23.4013 8.82011L23.0525 8.73089L23.0622 8.6921C23.1012 8.6921 23.1285 8.68434 23.1441 8.6727C23.1597 8.65913 23.1733 8.63391 23.183 8.59511L23.5065 7.34202C23.5163 7.30322 23.5182 7.27413 23.5105 7.25473C23.5026 7.23533 23.4812 7.21787 23.4481 7.19847L23.4579 7.16162L23.9373 7.28383L23.9275 7.32068C23.8768 7.32262 23.8476 7.33814 23.8417 7.3653C23.8379 7.37693 23.8417 7.40991 23.8535 7.46228L24.0931 8.59317L24.8551 7.71833C24.8902 7.67954 24.9078 7.65239 24.9116 7.6388C24.9176 7.61165 24.9 7.58449 24.8571 7.55927L24.8669 7.52242L25.3502 7.64656L25.3404 7.68342C25.3034 7.68342 25.2742 7.69118 25.2586 7.70476C25.2411 7.71833 25.2293 7.74355 25.2196 7.78235L24.896 9.03541C24.8864 9.0742 24.8844 9.10333 24.8922 9.12272C24.9 9.14211 24.9214 9.1615 24.9546 9.17898L24.9448 9.21585L24.5629 9.11889L24.5725 9.08202C24.6115 9.08202 24.6388 9.07419 24.6544 9.06063C24.67 9.04706 24.6836 9.02185 24.6934 8.98306L24.9935 7.81726L23.9801 8.9695H23.9821Z" fill="black"/>
<path d="M25.4264 9.2682L25.9214 8.07135C25.937 8.0345 25.9429 8.0054 25.937 7.986C25.9311 7.9666 25.9136 7.94526 25.8844 7.92198L25.9 7.88513L26.2644 8.0345L26.2488 8.07135C26.2118 8.06747 26.1826 8.06941 26.1651 8.07911C26.1475 8.08881 26.13 8.11403 26.1144 8.15088L25.6194 9.34768C25.6038 9.38455 25.5999 9.41368 25.6038 9.43307C25.6096 9.45437 25.6271 9.47577 25.6564 9.49707L25.6408 9.53394L25.2764 9.38455L25.292 9.34768C25.329 9.35351 25.3582 9.34968 25.3757 9.33803C25.3933 9.32638 25.4108 9.30307 25.4264 9.26629V9.2682Z" fill="black"/>
<path d="M26.6136 9.17705L26.3329 9.68139C26.3194 9.70661 26.3134 9.72992 26.3174 9.74931C26.3213 9.7687 26.335 9.792 26.3603 9.81522L26.3369 9.856L25.9958 9.66783L26.0192 9.62713C26.0543 9.63487 26.0815 9.63678 26.101 9.62905C26.1206 9.62131 26.1381 9.60574 26.1517 9.58052L26.7988 8.41668C26.8123 8.39146 26.8163 8.37012 26.8104 8.35073C26.8046 8.33133 26.789 8.30999 26.7637 8.28672L26.7851 8.24792L27.5744 8.68243C27.6796 8.74061 27.7556 8.78913 27.8043 8.82792C27.8531 8.8667 27.892 8.91131 27.9213 8.96174C27.9564 9.01992 27.9719 9.08783 27.97 9.16157C27.968 9.23531 27.9466 9.30896 27.9076 9.37879C27.8687 9.44861 27.818 9.50487 27.7575 9.54365C27.6972 9.58444 27.6309 9.60574 27.5607 9.60774C27.5023 9.61157 27.4419 9.60192 27.3834 9.58252C27.3249 9.56305 27.2431 9.52426 27.1398 9.46609L26.6136 9.17705ZM26.6896 9.03931L27.1905 9.31479C27.2821 9.36522 27.3503 9.39818 27.397 9.41374C27.4438 9.43122 27.4886 9.43696 27.5296 9.43313C27.6114 9.42731 27.6777 9.37687 27.7303 9.27992C27.7829 9.18679 27.7907 9.10339 27.7517 9.02965C27.7322 8.99279 27.703 8.95792 27.664 8.92879C27.6251 8.89774 27.5607 8.85705 27.4691 8.80661L26.9683 8.53112L26.6876 9.03739L26.6896 9.03931Z" fill="black"/>
<path d="M28.2602 10.1488L27.888 10.6221L28.6792 11.2409C28.7104 11.2661 28.7377 11.2777 28.7591 11.2797C28.7805 11.2797 28.8059 11.2681 28.8351 11.2448L28.8663 11.27L28.6539 11.5396L28.6227 11.5144C28.6383 11.4795 28.6441 11.4543 28.6383 11.4329C28.6344 11.4136 28.6149 11.3903 28.5818 11.365L27.5527 10.5601L27.5781 10.529C27.6132 10.5445 27.6424 10.5503 27.6619 10.5445C27.6814 10.5387 27.7048 10.5212 27.7282 10.4883L28.533 9.47182C28.5584 9.44077 28.57 9.41364 28.572 9.39234C28.572 9.37095 28.5603 9.34573 28.5389 9.31669L28.5623 9.28564L29.5834 10.0848C29.6147 10.11 29.642 10.1236 29.6634 10.1236C29.6848 10.1236 29.7101 10.112 29.7394 10.0906L29.7706 10.1139L29.5582 10.3836L29.5269 10.3603C29.5426 10.3253 29.5464 10.2982 29.5426 10.2769C29.5367 10.2575 29.5192 10.2342 29.4861 10.2089L28.7026 9.59408L28.3635 10.0247L28.8624 10.4165C28.8936 10.4417 28.9209 10.4534 28.9423 10.4553C28.9637 10.4553 28.9891 10.4436 29.0183 10.4203L29.0495 10.4436L28.837 10.7133L28.8059 10.69C28.8215 10.6551 28.8254 10.6279 28.8195 10.6066C28.8137 10.5872 28.7961 10.5639 28.7649 10.5407L28.266 10.1488H28.2602Z" fill="black"/>
<path d="M29.6849 11.402L29.26 11.7861C29.2308 11.8132 29.2133 11.8365 29.2094 11.8559C29.2054 11.8772 29.2114 11.9044 29.2308 11.9374L29.2016 11.9645L28.9365 11.6736L28.9658 11.6464C28.9989 11.6677 29.0242 11.6775 29.0456 11.6755C29.0671 11.6736 29.0905 11.6581 29.1217 11.6309L30.0844 10.7619C30.1156 10.7347 30.1312 10.7115 30.1351 10.6901C30.139 10.6707 30.1312 10.6436 30.1136 10.6086L30.1429 10.5815L30.7937 11.2953C30.8679 11.3768 30.9224 11.4466 30.9575 11.5087C30.9926 11.5708 31.014 11.6329 31.0218 11.6949C31.0393 11.8307 30.9906 11.951 30.8756 12.0518C30.7821 12.1352 30.6827 12.1721 30.5774 12.1624C30.4702 12.1527 30.3611 12.0964 30.2481 11.9937L30.0434 12.7288C30.0376 12.754 30.0357 12.7754 30.0396 12.7909C30.0434 12.8064 30.0552 12.8297 30.0766 12.8588L30.0474 12.8859L29.7765 12.5891L29.8057 12.5639C29.8369 12.5872 29.8583 12.593 29.8701 12.5814C29.8778 12.5737 29.8896 12.5504 29.8992 12.5097L30.0864 11.8365L29.6887 11.4001L29.6849 11.402ZM29.8018 11.2972L30.2189 11.7531C30.2851 11.8268 30.3397 11.8792 30.3787 11.9122C30.4176 11.9432 30.4567 11.9664 30.4937 11.9801C30.5774 12.0072 30.6574 11.9859 30.7353 11.916C30.8113 11.8482 30.8425 11.7705 30.8328 11.6833C30.823 11.6018 30.7665 11.5048 30.6593 11.3884L30.2267 10.9151L29.8018 11.2992V11.2972Z" fill="black"/>
<path d="M30.7018 13.8985L31.5144 12.5988L30.4816 13.2253C30.4485 13.2467 30.427 13.2661 30.4192 13.2855C30.4114 13.3049 30.4134 13.332 30.4231 13.3689L30.39 13.3883L30.2029 13.0838L30.2361 13.0625C30.2633 13.0896 30.2887 13.1031 30.3082 13.1051C30.3296 13.1051 30.3568 13.0973 30.39 13.0779L31.5009 12.4048C31.5359 12.3835 31.5574 12.3641 31.5651 12.3447C31.573 12.3253 31.571 12.2981 31.5593 12.2613L31.5924 12.2399L31.8496 12.6609L31.8165 12.6822C31.7795 12.6492 31.7484 12.6396 31.723 12.6531C31.7133 12.659 31.6937 12.6861 31.6645 12.7307L31.0448 13.7084L32.2024 13.6114C32.255 13.6075 32.2862 13.6017 32.2979 13.5939C32.3213 13.5804 32.3271 13.5473 32.3154 13.4989L32.3486 13.4775L32.6078 13.9024L32.5747 13.9237C32.5473 13.8965 32.522 13.883 32.5025 13.881C32.4811 13.881 32.4538 13.8888 32.4207 13.9101L31.3099 14.5832C31.2748 14.6026 31.2553 14.6239 31.2474 14.6433C31.2397 14.6627 31.2416 14.6898 31.2514 14.7267L31.2183 14.7481L31.0136 14.4125L31.0467 14.3931C31.0741 14.4203 31.0994 14.4338 31.1188 14.4358C31.1403 14.4358 31.1676 14.428 31.2007 14.4086L32.2336 13.7821L30.6999 13.9043L30.7018 13.8985Z" fill="black"/>
<path d="M32.1907 15.9837L31.8886 15.1884L31.5904 15.1709C31.5534 15.169 31.5261 15.1709 31.5105 15.1768C31.4793 15.1884 31.4676 15.2195 31.4715 15.2718L31.4345 15.2854L31.2922 14.911L31.3292 14.8975C31.3488 14.9304 31.3741 14.9537 31.4034 14.9654C31.4325 14.9769 31.4851 14.9867 31.5572 14.9906L32.8455 15.0817C32.9176 15.0875 32.9643 15.0856 32.9857 15.0759C33.0169 15.0642 33.0287 15.0332 33.0189 14.9867L33.0559 14.9731L33.2236 15.4135L33.1865 15.427C33.1592 15.3862 33.132 15.3708 33.1027 15.3804C33.0852 15.3862 33.0443 15.4231 32.978 15.4891L32.1068 16.3678C32.0503 16.426 32.0114 16.4725 31.9938 16.5055C31.9763 16.5385 31.9724 16.5754 31.9802 16.6122L31.9432 16.6258L31.7931 16.2301L31.8301 16.2165C31.8554 16.2553 31.8788 16.2708 31.9003 16.263C31.9119 16.2592 31.9373 16.2359 31.9782 16.1971L32.1887 15.9837H32.1907ZM32.3154 15.8654L32.9371 15.2543L32.0621 15.2001L32.3154 15.8654Z" fill="black"/>
<path d="M33.3853 16.7984L32.1966 17.0196C32.1576 17.0273 32.1303 17.039 32.1166 17.0525C32.103 17.0681 32.0933 17.0952 32.0913 17.1321L32.0524 17.1398L31.9861 16.7888L32.025 16.781C32.0406 16.8159 32.0601 16.8372 32.0777 16.847C32.0971 16.8566 32.1245 16.8566 32.1654 16.8489L33.4438 16.6103C33.4847 16.6025 33.51 16.5909 33.5256 16.5754C33.5393 16.5598 33.5471 16.5327 33.551 16.4958L33.59 16.4881L33.6874 17.006L33.6484 17.0138C33.6231 16.9672 33.5938 16.9478 33.5607 16.9537C33.5315 16.9595 33.5003 16.9827 33.4672 17.0273L32.5863 18.166L33.6991 17.9584C33.738 17.9507 33.7654 17.9391 33.779 17.9235C33.7926 17.908 33.8005 17.8809 33.8043 17.844L33.8433 17.8363L33.9096 18.1873L33.8706 18.1951C33.855 18.1602 33.8375 18.1389 33.818 18.1291C33.7985 18.1195 33.7693 18.1195 33.7303 18.1252L32.4518 18.3638C32.4129 18.3716 32.3855 18.3813 32.372 18.3968C32.3583 18.4124 32.3485 18.4395 32.3466 18.4783L32.3076 18.4841L32.2297 18.0671L32.2687 18.0593C32.2901 18.1058 32.3134 18.1272 32.3408 18.1214C32.3602 18.1175 32.3915 18.0884 32.4343 18.0341L33.3873 16.7926L33.3853 16.7984Z" fill="black"/>
<path d="M33.0912 19.13L32.487 19.1359L32.4987 20.1386C32.4987 20.1794 32.5046 20.2086 32.5181 20.224C32.5299 20.2415 32.5552 20.2532 32.5923 20.2609V20.3016L32.2473 20.3055V20.2647C32.2843 20.2551 32.3077 20.2434 32.3213 20.2259C32.333 20.2086 32.3408 20.1813 32.3389 20.1406L32.3233 18.8371H32.3623C32.372 18.8739 32.3857 18.8992 32.4032 18.9108C32.4207 18.9225 32.448 18.9283 32.489 18.9283L33.7889 18.9147C33.8298 18.9147 33.857 18.9069 33.8746 18.8952C33.8901 18.8817 33.9038 18.8585 33.9136 18.8216H33.9525L33.9662 20.1134C33.9662 20.1542 33.974 20.1813 33.9857 20.1988C33.9993 20.2143 34.0227 20.2279 34.0597 20.2376V20.2764L33.7148 20.2803V20.2415C33.7518 20.2318 33.7752 20.2182 33.7889 20.2007C33.8005 20.1852 33.8064 20.1561 33.8064 20.1154L33.7947 19.1222L33.2451 19.128L33.2529 19.7605C33.2529 19.8012 33.2607 19.8283 33.2724 19.8458C33.284 19.8612 33.3094 19.8749 33.3465 19.8846V19.9233L33.0015 19.9272V19.8885C33.0386 19.8787 33.0619 19.8652 33.0756 19.8477C33.0872 19.8303 33.0931 19.8031 33.0931 19.7624L33.0853 19.13H33.0912Z" fill="black"/>
<path d="M33.6413 21.093L32.4466 20.8952C32.4077 20.8894 32.3784 20.8894 32.3589 20.8991C32.3395 20.9088 32.3239 20.9301 32.3083 20.967L32.2693 20.9611L32.3277 20.6081L32.3667 20.6139C32.3706 20.6527 32.3784 20.6799 32.394 20.6935C32.4096 20.709 32.4349 20.7187 32.4758 20.7245L33.7582 20.9359C33.7992 20.9417 33.8283 20.9417 33.8459 20.9321C33.8653 20.9224 33.8809 20.901 33.8965 20.8661L33.9355 20.8719L33.8498 21.3918L33.8108 21.386C33.803 21.3336 33.7816 21.3045 33.7485 21.2987C33.7192 21.2929 33.6822 21.3064 33.6354 21.3356L32.4174 22.1057L33.5341 22.2899C33.5731 22.2957 33.6023 22.2957 33.6218 22.286C33.6393 22.2764 33.6569 22.255 33.6725 22.2201L33.7114 22.2259L33.653 22.579L33.614 22.5731C33.6101 22.5363 33.6023 22.5091 33.5867 22.4936C33.5731 22.4781 33.5458 22.4684 33.5048 22.4606L32.2225 22.2491C32.1835 22.2434 32.1543 22.2434 32.1348 22.253C32.1153 22.2628 32.0997 22.2841 32.0822 22.321L32.0432 22.3151L32.1134 21.8961L32.1523 21.9019C32.1562 21.9544 32.1718 21.9815 32.1991 21.9854C32.2186 21.9892 32.2595 21.9717 32.318 21.935L33.6393 21.093H33.6413Z" fill="black"/>
<path d="M33.0756 23.832L31.8497 23.4092C31.8127 23.3955 31.7834 23.3917 31.764 23.3994C31.7445 23.4052 31.7231 23.4246 31.7016 23.4576L31.6646 23.4459L31.7932 23.0755L31.8303 23.0872C31.8283 23.1259 31.8302 23.1531 31.8439 23.1706C31.8555 23.188 31.8809 23.2035 31.918 23.2152L33.1437 23.638L33.3172 23.1395C33.3308 23.1007 33.3328 23.0716 33.327 23.0522C33.3211 23.0328 33.3016 23.0115 33.2684 22.9901L33.2821 22.9532L33.6076 23.0658L33.594 23.1026C33.5569 23.1007 33.5277 23.1026 33.5101 23.1162C33.4926 23.1279 33.477 23.1531 33.4653 23.1899L33.0502 24.3848C33.0365 24.4236 33.0326 24.4527 33.0405 24.4721C33.0463 24.4915 33.0658 24.5129 33.097 24.5342L33.0833 24.5711L32.7579 24.4586L32.7716 24.4217C32.8105 24.4256 32.8377 24.4217 32.8553 24.4081C32.8728 24.3965 32.8884 24.3712 32.9002 24.3344L33.0736 23.8359L33.0756 23.832Z" fill="black"/>
<path d="M30.4019 25.8882L32.2514 26.1384L31.0138 25.2965C30.9807 25.2751 30.9534 25.2636 30.932 25.2636C30.9106 25.2636 30.8852 25.2771 30.858 25.3024L30.8189 25.2771L31.0411 24.9551L31.0801 24.9823C31.0664 25.0171 31.0645 25.0463 31.0704 25.0657C31.0762 25.0851 31.0976 25.1064 31.1308 25.1297L32.4872 26.0511C32.5203 26.0744 32.5475 26.086 32.5691 26.0841C32.5905 26.0841 32.6138 26.0704 32.6431 26.0452L32.6821 26.0704L32.3917 26.4933L32.3527 26.4662C32.3663 26.4177 32.3624 26.3866 32.343 26.3731C32.3332 26.3672 32.2942 26.3595 32.224 26.3498L30.7703 26.1577L31.4855 27.4457C31.5108 27.4904 31.5322 27.5195 31.5478 27.5311C31.5693 27.5447 31.5985 27.537 31.6394 27.5078L31.6784 27.535L31.386 27.9617L31.3471 27.9346C31.3588 27.8997 31.3627 27.8706 31.3569 27.8512C31.351 27.8317 31.3295 27.8104 31.2964 27.7871L29.94 26.8657C29.9069 26.8444 29.8796 26.8328 29.8582 26.8328C29.8367 26.8328 29.8114 26.8464 29.7841 26.8716L29.7451 26.8464L29.979 26.505L30.018 26.5302C30.0044 26.5671 30.0004 26.5942 30.0082 26.6136C30.0141 26.6331 30.0355 26.6544 30.0686 26.6777L31.3043 27.5195L30.4019 25.8901V25.8882Z" fill="black"/>
<path d="M28.9518 28.2315L29.5676 27.6417L29.4663 27.3605C29.4546 27.3256 29.4429 27.3023 29.4313 27.2906C29.4078 27.2674 29.3748 27.2674 29.328 27.2926L29.3006 27.2654L29.5911 26.9881L29.6183 27.0171C29.5949 27.0482 29.5832 27.0811 29.5852 27.1122C29.5852 27.1451 29.5988 27.1956 29.6242 27.2635L30.047 28.4778C30.0705 28.5457 30.09 28.5884 30.1075 28.6058C30.1309 28.6311 30.164 28.6291 30.203 28.6L30.2303 28.6291L29.8892 28.955L29.8619 28.9259C29.8892 28.8851 29.8931 28.8522 29.8716 28.8309C29.86 28.8172 29.8093 28.794 29.7216 28.7591L28.5679 28.3071C28.4919 28.278 28.4335 28.2605 28.3964 28.2586C28.3594 28.2567 28.3243 28.2664 28.2912 28.2877L28.2639 28.2605L28.5698 27.9677L28.5971 27.9967C28.5718 28.0356 28.5659 28.0627 28.5815 28.0802C28.5893 28.0879 28.6205 28.1034 28.6731 28.1248L28.9538 28.2334L28.9518 28.2315ZM29.1097 28.2993L29.9204 28.6271L29.6262 27.8066L29.1097 28.2993Z" fill="black"/>
<path d="M28.2212 29.0442L27.96 28.662C27.9386 28.6291 27.9171 28.6097 27.8956 28.6019C27.8762 28.5942 27.8489 28.598 27.8119 28.6097L27.7904 28.5767L28.1159 28.3556L28.1373 28.3885C28.1119 28.4177 28.1003 28.4429 28.0984 28.4623C28.0984 28.4836 28.1081 28.5107 28.1315 28.5438L28.8643 29.6126C28.8876 29.6455 28.9091 29.6649 28.9285 29.6727C28.948 29.6785 28.9753 29.6765 29.0124 29.663L29.0338 29.6959L28.7083 29.9171L28.6869 29.8841C28.7122 29.855 28.7259 29.8318 28.7259 29.8104C28.7259 29.7891 28.7161 29.7619 28.6927 29.7289L28.3303 29.1994L28.0282 30.1363C28.0068 30.2003 27.9951 30.2411 27.9931 30.2605C27.9892 30.2779 27.9931 30.2934 27.9989 30.3031C28.0107 30.3205 28.0321 30.3205 28.0652 30.307L28.0867 30.3399L27.7086 30.596L27.6872 30.5631C27.7144 30.5339 27.732 30.5145 27.7417 30.501C27.7495 30.4874 27.7612 30.4622 27.7728 30.4234L28.0243 29.6417L26.9134 29.2925C26.8842 29.2828 26.8608 29.2808 26.8452 29.2808C26.8296 29.2828 26.8101 29.2905 26.7868 29.306L26.7654 29.2731L27.1239 29.0306L27.1453 29.0636C27.1162 29.0965 27.1064 29.1199 27.1142 29.1315C27.1201 29.1392 27.1492 29.1548 27.2038 29.1722L28.0847 29.4573L28.225 29.0423L28.2212 29.0442Z" fill="black"/>
<path d="M26.6227 30.179L26.3693 29.6339L25.4552 30.0568C25.4182 30.0743 25.3949 30.0916 25.3851 30.1091C25.3754 30.1266 25.3735 30.1557 25.3812 30.1925L25.3442 30.21L25.198 29.8996L25.2351 29.8822C25.2584 29.9113 25.2799 29.9288 25.3014 29.9326C25.3208 29.9365 25.35 29.9326 25.3871 29.9132L26.5739 29.3643L26.5915 29.3992C26.5622 29.4244 26.5447 29.4457 26.5408 29.467C26.5369 29.4884 26.5427 29.5156 26.5602 29.5505L27.1079 30.7241C27.1254 30.7609 27.143 30.7842 27.1605 30.7939C27.18 30.8036 27.2073 30.8056 27.2444 30.7977L27.2619 30.8327L26.0829 31.3777C26.0458 31.3952 26.0224 31.4127 26.0127 31.4302C26.0029 31.4476 26.001 31.4767 26.0087 31.5136L25.9737 31.529L25.8275 31.2187L25.8626 31.2012C25.888 31.2303 25.9094 31.2478 25.9289 31.2516C25.9483 31.2556 25.9776 31.2497 26.0146 31.2323L26.9189 30.8133L26.6869 30.3167L26.1101 30.5844C26.0731 30.6018 26.0497 30.6193 26.0399 30.6368C26.0302 30.6543 26.0283 30.6833 26.036 30.7202L26.001 30.7376L25.8548 30.4273L25.8899 30.4098C25.9152 30.4389 25.9366 30.4563 25.9581 30.4603C25.9795 30.4641 26.0068 30.4583 26.0438 30.4409L26.6207 30.1731L26.6227 30.179Z" fill="black"/>
<path d="M25.076 31.5698L24.8558 30.7667C24.8227 30.6425 24.7915 30.5592 24.7681 30.5146C24.7428 30.4699 24.7057 30.4389 24.655 30.4175C24.5518 30.3729 24.3998 30.3787 24.1952 30.435C23.9691 30.4971 23.8288 30.5786 23.7723 30.6832C23.7528 30.722 23.743 30.7647 23.7469 30.8132C23.7509 30.8618 23.7664 30.9412 23.7976 31.0557L24.0178 31.8588C24.0275 31.8976 24.0412 31.9228 24.0587 31.9364C24.0743 31.9499 24.1035 31.9558 24.1405 31.9558L24.1503 31.9926L23.8034 32.0877L23.7937 32.0508C23.8268 32.0314 23.8463 32.012 23.8541 31.9926C23.8619 31.9732 23.86 31.9441 23.8502 31.9053L23.6183 31.0615C23.5793 30.918 23.5637 30.8132 23.5715 30.7492C23.5851 30.6367 23.6397 30.5436 23.7372 30.466C23.8326 30.3885 23.9769 30.3244 24.1698 30.272C24.4446 30.1964 24.6512 30.1964 24.7896 30.2662C24.8558 30.2992 24.9064 30.3439 24.9415 30.4C24.9766 30.4563 25.0117 30.5475 25.0468 30.6736L25.2787 31.5173C25.2904 31.5562 25.3041 31.5814 25.3197 31.595C25.3352 31.6066 25.3644 31.6144 25.4015 31.6125L25.4113 31.6492L25.0312 31.754L25.0215 31.7172C25.0546 31.6978 25.0741 31.6784 25.0818 31.659C25.0897 31.6396 25.0878 31.6105 25.078 31.5717L25.076 31.5698Z" fill="black"/>
<path d="M22.8223 31.3253L22.7639 30.7511C22.7619 30.7221 22.7521 30.7007 22.7385 30.6871C22.7248 30.6736 22.6995 30.6619 22.6664 30.6561L22.6625 30.6096L23.0503 30.5708L23.0542 30.6173C23.0211 30.6309 22.9977 30.6445 22.986 30.6619C22.9743 30.6794 22.9704 30.7007 22.9723 30.7298L23.1049 32.0547C23.1068 32.0818 23.1165 32.1032 23.1321 32.1148C23.1477 32.1265 23.1731 32.1362 23.2082 32.142L23.2121 32.1846L22.3156 32.2739C22.1967 32.2855 22.1051 32.2894 22.0427 32.2855C21.9804 32.2817 21.9239 32.2661 21.8713 32.2409C21.8089 32.2118 21.7582 32.1672 21.7173 32.1032C21.6764 32.0412 21.6529 31.9693 21.6452 31.8898C21.6374 31.8103 21.6452 31.7365 21.6744 31.6687C21.7017 31.6008 21.7426 31.5465 21.8011 31.5058C21.8478 31.4708 21.9024 31.4437 21.9609 31.4282C22.0213 31.4107 22.109 31.3971 22.2279 31.3855L22.8262 31.3273L22.8223 31.3253ZM22.8379 31.4825L22.2669 31.5387C22.1636 31.5485 22.0876 31.56 22.0389 31.5737C21.9901 31.5872 21.9511 31.6066 21.918 31.6338C21.8557 31.6842 21.8284 31.7638 21.8401 31.8724C21.8498 31.9791 21.8927 32.0508 21.9648 32.0896C22.0018 32.109 22.0447 32.1206 22.0954 32.1245C22.1441 32.1285 22.222 32.1245 22.3253 32.1148L22.8963 32.0585L22.8398 31.4844L22.8379 31.4825Z" fill="black"/>
<path d="M18.9501 31.0344L20.0005 31.1954L20.2304 30.852C20.2519 30.8191 20.2636 30.7958 20.2655 30.7822C20.2695 30.7532 20.2441 30.7299 20.1895 30.7124L20.1974 30.6659L20.6358 30.7337L20.6281 30.7784C20.5871 30.7784 20.5559 30.788 20.5325 30.8074C20.5091 30.8268 20.4741 30.8695 20.4293 30.9374L19.4704 32.3709C19.447 32.4058 19.4354 32.4291 19.4334 32.4426C19.4295 32.4679 19.451 32.4892 19.4957 32.5086L19.488 32.5552L19.0105 32.4814L19.0182 32.4349C19.067 32.4272 19.0943 32.4097 19.0982 32.3864C19.0982 32.3767 19.0943 32.3515 19.0826 32.3107L18.6246 30.7163C18.5915 30.5979 18.5681 30.53 18.5544 30.5068C18.5409 30.4854 18.5077 30.4641 18.4551 30.4408L18.4628 30.3943L18.9286 30.466L18.9208 30.5125C18.8643 30.5125 18.8331 30.5281 18.8273 30.563C18.8254 30.5785 18.8312 30.6096 18.8449 30.6561L18.9501 31.0325V31.0344ZM19.0027 31.2322L19.295 32.2661L19.8874 31.3699L19.0047 31.2342L19.0027 31.2322Z" fill="black"/>
<path d="M16.3391 31.269L16.5944 31.0227L16.6217 31.0498C16.608 31.075 16.5983 31.0925 16.5964 31.1022C16.5885 31.1236 16.61 31.1604 16.6568 31.2128C16.7601 31.3234 16.9024 31.4106 17.0836 31.4746C17.2297 31.525 17.3623 31.5425 17.483 31.5231C17.6039 31.5037 17.6818 31.4456 17.715 31.3486C17.7306 31.3039 17.7306 31.2613 17.7169 31.2167C17.7033 31.1721 17.6779 31.1352 17.6409 31.1061C17.6039 31.0769 17.5591 31.0498 17.5104 31.0285C17.4616 31.0071 17.3564 30.9625 17.1927 30.8985C17.0562 30.8462 16.955 30.8016 16.8887 30.7628C16.8224 30.7259 16.7678 30.6832 16.7289 30.6386C16.686 30.5901 16.6587 30.5319 16.647 30.464C16.6354 30.3962 16.6431 30.3282 16.6665 30.2603C16.7152 30.1188 16.8146 30.0276 16.9589 29.9829C17.1323 29.9325 17.335 29.9461 17.5649 30.0276C17.6779 30.0663 17.791 30.1265 17.904 30.2041C18.017 30.2816 18.1165 30.3689 18.2022 30.4679C18.2139 30.4815 18.2237 30.4912 18.2295 30.4931C18.2431 30.4989 18.2684 30.4892 18.3075 30.4679L18.3328 30.4989L18.056 30.7297L18.0288 30.6988C18.0346 30.689 18.0405 30.6813 18.0424 30.6793C18.0521 30.6657 18.058 30.6561 18.0619 30.6463C18.0716 30.6211 18.0385 30.5669 17.9625 30.4854C17.8339 30.3476 17.6858 30.2487 17.5162 30.1905C17.3623 30.1362 17.2239 30.1188 17.1031 30.1362C17.0446 30.144 16.9939 30.1653 16.9491 30.1982C16.9043 30.2312 16.8731 30.272 16.8575 30.3185C16.8419 30.3631 16.8399 30.4058 16.8536 30.4485C16.8653 30.4912 16.8906 30.5281 16.9257 30.5571C16.9589 30.5823 16.9978 30.6056 17.0427 30.6289C17.0875 30.6502 17.1732 30.6851 17.2999 30.7356C17.448 30.7938 17.5532 30.8403 17.6156 30.8714C17.6779 30.9024 17.7344 30.9393 17.7832 30.98C17.8475 31.0323 17.8904 31.0944 17.9158 31.1701C17.9391 31.2457 17.9372 31.3272 17.9079 31.4087C17.8553 31.5561 17.7481 31.6473 17.5864 31.6842C17.4207 31.7229 17.2317 31.7055 17.0212 31.6317C16.8283 31.5639 16.651 31.4552 16.4872 31.302C16.4619 31.2807 16.4463 31.269 16.4424 31.2671C16.4287 31.2632 16.4054 31.2729 16.3722 31.3001L16.343 31.2729L16.3391 31.269Z" fill="black"/>
<path d="M14.4758 30.2992L14.7682 30.0994L14.7897 30.1324C14.7721 30.1537 14.7604 30.1712 14.7546 30.179C14.7428 30.2003 14.7584 30.2391 14.7974 30.2973C14.8812 30.4234 15.006 30.532 15.1735 30.6251C15.308 30.6988 15.4366 30.7357 15.5594 30.7376C15.6822 30.7376 15.768 30.693 15.8187 30.6037C15.8401 30.5631 15.8498 30.5204 15.844 30.4738C15.8381 30.4272 15.8187 30.3884 15.7855 30.3516C15.7524 30.3167 15.7154 30.2837 15.6705 30.2546C15.6257 30.2255 15.5282 30.1654 15.3782 30.0742C15.2515 30.0005 15.16 29.9384 15.0995 29.8918C15.0391 29.8434 14.9942 29.7949 14.9611 29.7425C14.9261 29.6882 14.9085 29.6261 14.9085 29.5563C14.9085 29.4884 14.9261 29.4224 14.9611 29.3604C15.0333 29.2284 15.1443 29.1548 15.2963 29.1353C15.4756 29.114 15.6744 29.1605 15.8868 29.2789C15.992 29.3371 16.0934 29.4127 16.1928 29.5077C16.2902 29.6029 16.3741 29.7057 16.4442 29.8162C16.4539 29.8317 16.4618 29.8414 16.4676 29.8453C16.4813 29.8531 16.5085 29.8472 16.5495 29.8317L16.569 29.8666L16.2571 30.049L16.2357 30.0141C16.2357 30.0141 16.2493 29.9985 16.2513 29.9966C16.263 29.985 16.2708 29.9753 16.2766 29.9675C16.2902 29.9443 16.2649 29.886 16.2045 29.793C16.1012 29.6358 15.9706 29.5156 15.8128 29.4283C15.6685 29.3507 15.5361 29.3099 15.4133 29.3061C15.3548 29.3061 15.3002 29.3157 15.2515 29.341C15.2028 29.3662 15.1658 29.4011 15.1405 29.4457C15.119 29.4864 15.1093 29.5291 15.1151 29.5737C15.1209 29.6184 15.1384 29.6571 15.1677 29.6921C15.197 29.7231 15.2301 29.7522 15.271 29.7813C15.3119 29.8104 15.3899 29.8589 15.5068 29.9287C15.6433 30.0102 15.7406 30.0723 15.7971 30.113C15.8537 30.1537 15.9024 30.1984 15.9453 30.2469C15.9999 30.3089 16.033 30.3787 16.0447 30.4564C16.0545 30.5358 16.0389 30.6135 15.996 30.6911C15.9219 30.8268 15.7991 30.9005 15.6335 30.9103C15.464 30.9199 15.2807 30.8734 15.0839 30.7667C14.9046 30.6697 14.7487 30.532 14.6123 30.3535C14.5909 30.3283 14.5792 30.3128 14.5733 30.3109C14.5597 30.3031 14.5344 30.3109 14.4993 30.3322L14.4758 30.2992Z" fill="black"/>
<path d="M13.1873 29.4903C12.9632 29.308 12.8287 29.1024 12.7878 28.8735C12.7429 28.631 12.8034 28.408 12.969 28.2062C13.0723 28.0802 13.2048 27.9929 13.3627 27.9463C13.6609 27.857 13.961 27.9347 14.2591 28.1771C14.4814 28.3575 14.6138 28.5631 14.6567 28.7921C14.7015 29.0345 14.6431 29.2537 14.4833 29.4496C14.3742 29.5815 14.2416 29.6727 14.0837 29.7192C13.9162 29.7696 13.7427 29.7639 13.5653 29.7037C13.4425 29.663 13.3159 29.5912 13.1873 29.4884V29.4903ZM13.2925 29.3604C13.4757 29.5097 13.6686 29.5737 13.8733 29.5524C14.0506 29.5349 14.1968 29.4555 14.3118 29.3138C14.4268 29.1742 14.4754 29.0151 14.4579 28.8386C14.4384 28.6349 14.3351 28.4584 14.15 28.309C13.9649 28.1596 13.77 28.0937 13.5673 28.115C13.3899 28.1325 13.2457 28.2101 13.1347 28.3459C13.0138 28.4933 12.9632 28.6543 12.9827 28.8288C13.0041 29.0306 13.1074 29.2091 13.2925 29.3604Z" fill="black"/>
<path d="M10.9968 26.9899L11.3535 26.9317L11.3574 26.9705C11.334 26.9802 11.3164 26.9899 11.3068 26.9996C11.2912 27.0132 11.2852 27.0422 11.2912 27.0868C11.3126 27.2712 11.3905 27.4438 11.525 27.6048C11.6555 27.7619 11.8095 27.8589 11.9849 27.8938C12.1818 27.9326 12.3591 27.8861 12.517 27.7561C12.6884 27.6145 12.7723 27.4361 12.7644 27.2208C12.7605 27.0501 12.6982 26.8929 12.5793 26.7494C12.4448 26.5864 12.2792 26.4855 12.0843 26.4448C12.0083 26.4293 11.9615 26.4274 11.944 26.4409C11.9304 26.4507 11.9167 26.4739 11.9031 26.5069L11.8641 26.4953L11.944 26.1364L11.983 26.1422C11.983 26.1868 11.9849 26.2159 11.9946 26.2275C12.0005 26.2334 12.0122 26.2392 12.0317 26.2431C12.1798 26.2761 12.3084 26.3246 12.4176 26.3886C12.5247 26.4545 12.6281 26.5437 12.7216 26.6582C12.8872 26.8561 12.9691 27.0655 12.9672 27.2828C12.9672 27.3915 12.9457 27.4962 12.9047 27.5951C12.8521 27.7212 12.7703 27.8298 12.6631 27.919C12.4565 28.0878 12.2265 28.1441 11.9674 28.0878C11.753 28.0413 11.562 27.9152 11.3944 27.7135C11.2463 27.5349 11.1489 27.3275 11.1021 27.0927C11.0982 27.0714 11.0924 27.0578 11.0865 27.0501C11.0728 27.0345 11.0456 27.0268 11.0047 27.0287L10.9968 26.9899Z" fill="black"/>
<path d="M11.7821 25.7077L10.681 26.3944C10.6459 26.4158 10.6264 26.4371 10.6185 26.4565C10.6108 26.4759 10.6127 26.503 10.6245 26.5399L10.5913 26.5613L10.3828 26.2295L10.4159 26.2082C10.4432 26.2335 10.4685 26.2489 10.488 26.2508C10.5094 26.2508 10.5367 26.2431 10.5699 26.2218L11.6709 25.5351C11.7041 25.5138 11.7255 25.4944 11.7333 25.4749C11.7411 25.4555 11.7391 25.4265 11.7275 25.3915L11.7606 25.3702L11.9691 25.7019L11.936 25.7233C11.9087 25.6981 11.8833 25.6845 11.8619 25.6825C11.8405 25.6825 11.8132 25.6903 11.7801 25.7116L11.7821 25.7077Z" fill="black"/>
<path d="M10.6424 24.2025L11.0069 24.9726L11.307 24.9668C11.344 24.9668 11.3693 24.9628 11.3849 24.9551C11.4142 24.9415 11.4258 24.9086 11.4161 24.8562L11.4512 24.8388L11.6226 25.1995L11.5875 25.215C11.5642 25.1821 11.5389 25.1627 11.5077 25.153C11.4765 25.1433 11.4239 25.1394 11.3518 25.1414L10.0617 25.153C9.98955 25.153 9.94279 25.1588 9.92128 25.1685C9.89011 25.1821 9.88236 25.2131 9.89594 25.2596L9.86093 25.2771L9.6582 24.8523L9.6933 24.8348C9.72447 24.8736 9.75173 24.8872 9.78099 24.8736C9.79849 24.8659 9.83559 24.8271 9.89794 24.7554L10.6969 23.8107C10.7495 23.7486 10.7827 23.6982 10.7983 23.6632C10.8139 23.6283 10.8139 23.5934 10.8041 23.5546L10.8392 23.5371L11.0204 23.9193L10.9854 23.9368C10.9581 23.8999 10.9328 23.8863 10.9113 23.896C10.9016 23.9018 10.8762 23.9251 10.8392 23.9678L10.6463 24.1967L10.6424 24.2025ZM10.5274 24.3305L9.95638 24.9901L10.8314 24.9745L10.5255 24.3305H10.5274Z" fill="black"/>
<path d="M9.17919 23.0562L10.4246 22.6954C10.4635 22.6837 10.4888 22.6702 10.5005 22.6546C10.5142 22.6391 10.52 22.61 10.5181 22.5731L10.5551 22.5615L10.6662 22.9378L10.6291 22.9495C10.6097 22.9165 10.5902 22.897 10.5688 22.8893C10.5493 22.8816 10.52 22.8835 10.4811 22.8951L9.2357 23.2559L9.38383 23.7642C9.3955 23.8029 9.40917 23.8282 9.42677 23.8417C9.44427 23.8534 9.47153 23.8592 9.50854 23.8592L9.52029 23.8961L9.18894 23.993L9.17727 23.9562C9.21036 23.9368 9.22987 23.9174 9.23771 23.898C9.24546 23.8786 9.24354 23.8495 9.23187 23.8107L8.87718 22.5964C8.86543 22.5576 8.85184 22.5324 8.83425 22.5189C8.81675 22.5072 8.78949 22.5014 8.75239 22.5014L8.74072 22.4645L9.07207 22.3676L9.08374 22.4043C9.05057 22.4237 9.03115 22.4432 9.02331 22.4626C9.01556 22.482 9.01747 22.511 9.02914 22.5498L9.17727 23.0581L9.17919 23.0562Z" fill="black"/>
<path d="M10.1903 21.6904L8.90991 21.9135C8.86898 21.9213 8.84364 21.9309 8.82805 21.9465C8.81447 21.962 8.80472 21.9892 8.80271 22.026L8.76379 22.0318L8.69556 21.6458L8.73453 21.64C8.75011 21.6749 8.76771 21.6962 8.78712 21.706C8.80472 21.7156 8.83389 21.7176 8.87482 21.7098L10.1552 21.4868C10.1942 21.479 10.2215 21.4693 10.2351 21.4538C10.2488 21.4382 10.2586 21.4111 10.2624 21.3742L10.3014 21.3684L10.3696 21.7544L10.3307 21.7602C10.3151 21.7254 10.2975 21.704 10.278 21.6943C10.2586 21.6846 10.2293 21.6827 10.1903 21.6904Z" fill="black"/>
<path d="M8.51227 20.1349C8.50058 19.8458 8.56879 19.6111 8.71299 19.4288C8.86504 19.2348 9.07351 19.132 9.33659 19.1223C9.50031 19.1164 9.65236 19.1572 9.79265 19.2445C10.0577 19.4094 10.1961 19.6848 10.2117 20.0669C10.2234 20.354 10.1552 20.5888 10.011 20.7691C9.857 20.9631 9.65427 21.0659 9.39903 21.0756C9.22748 21.0815 9.0716 21.0426 8.93131 20.9554C8.78318 20.8642 8.67208 20.7303 8.59997 20.5577C8.5493 20.4394 8.52006 20.2977 8.51227 20.1329V20.1349ZM8.67987 20.129C8.68962 20.3637 8.76951 20.5519 8.91955 20.6896C9.05018 20.8099 9.20605 20.8681 9.38928 20.8603C9.57241 20.8525 9.72255 20.7847 9.84525 20.6547C9.98562 20.5053 10.0499 20.3133 10.0421 20.0747C10.0324 19.8381 9.95245 19.6499 9.8024 19.5122C9.67186 19.3919 9.5179 19.3337 9.34251 19.3415C9.15145 19.3492 8.99758 19.4171 8.87862 19.547C8.74025 19.6964 8.67598 19.8923 8.68182 20.129H8.67987Z" fill="black"/>
<path d="M8.85117 18.3134L10.0458 18.5016C10.0848 18.5074 10.114 18.5054 10.1335 18.4976C10.153 18.488 10.1686 18.4666 10.1842 18.4297L10.2232 18.4356L10.1666 18.7886L10.1276 18.7828C10.1238 18.744 10.116 18.7169 10.1004 18.7033C10.0848 18.6897 10.0575 18.6781 10.0185 18.6723L8.73421 18.4686C8.69331 18.4628 8.66408 18.4647 8.64654 18.4743C8.62899 18.4841 8.61145 18.5074 8.59586 18.5423L8.55688 18.5364L8.64069 18.0166L8.67966 18.0224C8.68746 18.0748 8.70887 18.1039 8.74205 18.1097C8.77122 18.1136 8.80832 18.1019 8.85508 18.0709L10.0692 17.293L8.95253 17.1165C8.9116 17.1107 8.88234 17.1107 8.86484 17.1223C8.84725 17.1321 8.82974 17.1534 8.81416 17.1883L8.77514 17.1825L8.83166 16.8295L8.87067 16.8353C8.87459 16.8722 8.88426 16.8993 8.89793 16.9148C8.9116 16.9303 8.93886 16.94 8.97979 16.9458L10.2641 17.1476C10.303 17.1534 10.3323 17.1515 10.3518 17.1437C10.3713 17.134 10.3869 17.1127 10.4025 17.0758L10.4414 17.0816L10.3751 17.5006L10.3362 17.4948C10.3323 17.4424 10.3167 17.4153 10.2894 17.4114C10.2699 17.4075 10.229 17.4249 10.1706 17.4637L8.85308 18.3134H8.85117Z" fill="black"/>
<path d="M12.0752 18.7789H12.1454V24.0357H12.0752V18.7789ZM12.7787 21.512V24.0357H12.7086V18.7789H12.7787V21.4073L14.94 18.7789H15.0394L12.7787 21.512ZM13.1802 21.9057L15.7644 18.7808H15.8638L13.6947 21.4092L15.856 24.0376H15.7644L13.644 21.4732L13.2855 21.9155L15.0316 24.0396H14.94L13.1802 21.9097V21.9057Z" fill="black"/>
<path d="M15.9338 24.0725H15.7448L13.644 21.5295L13.3321 21.9117L15.1095 24.0725H14.9204L13.1295 21.9039L15.7448 18.7401H15.9396L13.7394 21.4054L15.9319 24.0706L15.9338 24.0725ZM13.2288 21.9059L13.9012 22.7186L13.2386 21.9117L13.6459 21.4112L14.6632 22.6411L13.6478 21.4073L15.7857 18.8158L13.2327 21.9039L13.2288 21.9059ZM12.8157 24.0725H12.6695V18.7421H12.8157V21.3025L14.9223 18.7421H15.1172L12.8157 21.5257V24.0725ZM14.9574 18.8158L14.6729 19.163L14.9594 18.8158H14.9574ZM12.1823 24.0725H12.0361V18.7421H12.1823V24.0725Z" fill="black"/>
<path d="M16.4968 23.4053V23.3355H17.9897C18.4262 23.3355 18.7847 22.9785 18.7847 22.5441C18.7847 22.1096 18.4262 21.7662 17.9955 21.7584C17.1652 21.7584 16.4949 21.099 16.4949 20.2726C16.4949 19.4463 17.1633 18.7809 17.9955 18.7809H19.4883V18.8507H17.9955C17.2062 18.8507 16.567 19.4889 16.567 20.2726C16.567 21.0563 17.2082 21.6886 17.9955 21.6886C18.4671 21.6964 18.8549 22.0746 18.8549 22.5441C18.8549 23.0135 18.4671 23.4053 17.9897 23.4053H16.4968ZM17.2003 20.2726C17.2003 20.7071 17.5531 21.0582 17.9897 21.0582C18.8198 21.0582 19.4903 21.7178 19.4903 22.5441C19.4903 23.3704 18.8218 24.0377 17.9897 24.0377H16.4968V23.9678H17.9897C18.7789 23.9678 19.4201 23.3297 19.4201 22.546C19.4201 21.7624 18.7789 21.1299 17.9897 21.1299C17.5103 21.1299 17.1302 20.7517 17.1302 20.2745C17.1302 19.7973 17.518 19.4132 17.9955 19.4132H19.4883V19.4831H17.9955C17.5589 19.4831 17.2003 19.84 17.2003 20.2745V20.2726Z" fill="black"/>
<path d="M17.9898 24.0725H16.46V23.9271H17.9898C18.7577 23.9271 19.3813 23.3064 19.3813 22.5421C19.3813 21.7779 18.7577 21.1629 17.9898 21.1629C17.4869 21.1629 17.0933 20.7711 17.0933 20.2706C17.0933 19.7702 17.4987 19.3705 17.9976 19.3705H19.5274V19.516H17.9976C17.5785 19.516 17.2394 19.8555 17.2394 20.2706C17.2394 20.6858 17.5766 21.0174 17.9898 21.0174C18.8375 21.0174 19.5274 21.7002 19.5274 22.5402C19.5274 23.3801 18.8375 24.0706 17.9898 24.0706V24.0725ZM17.9898 23.4421H16.46V23.2966H17.9898C18.4088 23.2966 18.7479 22.9572 18.7479 22.5421C18.7479 22.127 18.4107 21.8011 17.9956 21.7933C17.1478 21.7933 16.46 21.1105 16.46 20.2706C16.46 19.4307 17.1498 18.7401 17.9976 18.7401H19.5274V18.8857H17.9976C17.2297 18.8857 16.6061 19.5064 16.6061 20.2706C16.6061 21.0349 17.2297 21.6499 17.9976 21.6499C18.4926 21.6576 18.894 22.0572 18.894 22.5421C18.894 23.0271 18.4887 23.4421 17.9898 23.4421Z" fill="black"/>
<path d="M20.2642 24.0357H20.1941V18.7789L20.2642 18.8487V24.0357ZM25.1285 19.7392V18.9535L22.256 21.8263L20.8975 20.4743V24.0338H20.8274V19.4074L22.7003 21.2715L25.2006 18.777V24.0338H25.1305V19.8419L24.5672 20.4025V24.0318H24.4971V20.4724L22.7022 22.2666L22.6535 22.2181L25.1324 19.7372L25.1285 19.7392ZM20.8975 19.5858V20.3715L22.25 21.7177L22.6437 21.3258L20.8975 19.5878V19.5858Z" fill="black"/>
<path d="M25.2376 24.0726H25.0915V19.9351L24.6023 20.4219V24.0745H24.4562V20.5674L22.6983 22.3249L22.595 22.224L25.0895 19.7275V19.0485L22.254 21.8845L20.9327 20.5693V24.0765H20.7865V19.324L22.6964 21.225L25.2337 18.6917V24.0745L25.2376 24.0726ZM22.2501 21.7681L22.2559 21.7739L24.7017 19.3279L22.7002 21.3258L22.6964 21.322L22.2501 21.7662V21.7681ZM20.9346 20.354L22.2481 21.6634L22.5892 21.3239L20.9327 19.6751V20.354H20.9346ZM20.3012 24.0726H20.155V18.6898L20.3012 18.8332V24.0726Z" fill="black"/>
<path d="M26.5294 22.9146H30.5927L31.156 24.0357H31.0858L30.5576 22.9844H29.9301L30.4583 24.0357H30.3881L29.8599 22.9844H27.192L26.6716 24.0357H26.5937C26.7847 23.6497 26.96 23.3006 27.114 22.9844H26.4943C26.3325 23.3064 26.163 23.6497 25.974 24.0357H25.9038L28.5309 18.7789L28.5737 18.8566C28.2366 19.5083 28.221 19.5355 26.849 22.2841H27.4687C28.5386 20.1542 28.5679 20.1194 28.8777 19.4734L30.3141 22.354H26.8139C26.7301 22.5363 26.6385 22.7186 26.5332 22.9146H26.5294ZM27.5447 22.2841H29.5091L28.5309 20.3211L27.5447 22.2841ZM28.5639 20.2435L29.5774 22.2821H30.2049L28.8739 19.6267L28.5639 20.2435Z" fill="black"/>
<path d="M31.2165 24.0725H31.0625L30.5343 23.0212H29.9906L30.5188 24.0725H30.3648L29.8366 23.0212H27.2135L26.6932 24.0725H26.5314L26.5587 24.0182C26.6425 23.8494 26.7224 23.6865 26.8004 23.5314C26.89 23.3528 26.9738 23.1821 27.0537 23.0212H26.5178C26.3813 23.2947 26.2391 23.5818 26.0832 23.898L25.9975 24.0725H25.8435L28.529 18.6974L28.6148 18.8546L28.605 18.872C28.2678 19.5238 28.2503 19.5587 26.9076 22.2453H27.4435C27.8566 21.4228 28.1139 20.9146 28.2912 20.5634C28.5699 20.0145 28.6537 19.8477 28.8408 19.4559L28.8739 19.3861L30.3706 22.3888H26.8355C26.7614 22.5479 26.6815 22.7069 26.5918 22.8757H30.6162L31.2165 24.0706V24.0725ZM29.6028 22.2453H30.1466L28.8758 19.71L28.6069 20.2434L29.6028 22.2453ZM27.6052 22.2453H29.4488L28.5309 20.4044L27.6052 22.2453Z" fill="black"/>
<path d="M12.3613 16.9264C12.3613 17.0661 12.3165 17.1786 12.2249 17.2601C12.1353 17.3415 12.0144 17.3822 11.8663 17.3822C11.7182 17.3822 11.5974 17.3415 11.5058 17.2601C11.4161 17.1786 11.3694 17.068 11.3694 16.9264C11.3694 16.8042 11.4044 16.7034 11.4765 16.6238H11.229V16.4454H11.7455V16.2009H11.9813V16.4454H12.488V16.6238H12.2502C12.3223 16.7034 12.3574 16.8042 12.3574 16.9264H12.3613ZM12.1333 16.9283C12.1333 16.8488 12.1099 16.7828 12.0612 16.7324C12.0125 16.682 11.9481 16.6568 11.8683 16.6568C11.7883 16.6568 11.7241 16.682 11.6753 16.7324C11.6266 16.7828 11.6032 16.8488 11.6032 16.9283C11.6032 17.0079 11.6266 17.0758 11.6753 17.1262C11.7241 17.1767 11.7883 17.2019 11.8683 17.2019C11.9481 17.2019 12.0125 17.1767 12.0612 17.1262C12.1099 17.0758 12.1333 17.0098 12.1333 16.9283ZM12.985 18.164H11.7844C11.7357 18.164 11.7006 18.1543 11.6792 18.1348C11.6578 18.1155 11.648 18.0844 11.648 18.0398V17.5743H11.8819V17.9099C11.88 17.9603 11.9072 17.9855 11.9618 17.9855H12.985V18.164ZM13.248 17.0234H12.9187V17.6402H12.6868V16.2649H12.9206V16.8449H13.248V17.0234Z" fill="black"/>
<path d="M15.0406 17.6092L15.0075 18.1931H14.7853V17.7528C14.7853 17.6888 14.7561 17.6577 14.6976 17.6577H13.6355V17.4793H14.1928V17.1534H13.3958V16.9749H14.7775V16.5462C14.7775 16.4822 14.7482 16.4493 14.6898 16.4493H13.6725V16.2708H14.9354C14.9801 16.2708 15.0113 16.2805 15.025 16.298C15.0406 16.3154 15.0445 16.3503 15.0406 16.3988L15.0017 16.9749H15.2842V17.1534H14.4228V17.4793H14.9217C14.9685 17.4793 14.9997 17.4889 15.0172 17.5083C15.0347 17.5277 15.0406 17.5627 15.0387 17.6092H15.0406Z" fill="black"/>
<path d="M16.582 17.2911H15.7402C15.6758 17.2911 15.633 17.2776 15.6076 17.2503C15.5823 17.2232 15.5686 17.1825 15.5686 17.1243V16.2883H15.8025V16.587H16.3501V16.2883H16.582V17.2911ZM16.3501 17.1126V16.7674H15.8025V17.0312C15.8025 17.0855 15.8317 17.1126 15.8921 17.1126H16.3521H16.3501ZM17.229 18.1621H16.0227C15.9721 18.1621 15.937 18.1523 15.9175 18.133C15.898 18.1136 15.8882 18.0806 15.8882 18.0321V17.5239H16.124V17.906C16.1221 17.9564 16.1494 17.9816 16.204 17.9816H17.231V18.1601L17.229 18.1621ZM17.4804 16.9148H17.1511V17.584H16.9192V16.265H17.155V16.7343H17.4824V16.9129L17.4804 16.9148Z" fill="black"/>
<path d="M18.6565 17.0622C18.5532 17.1863 18.407 17.2503 18.216 17.2503C18.0562 17.2503 17.9257 17.2037 17.8224 17.1126C17.7191 17.0215 17.6685 16.9011 17.6685 16.7518C17.6685 16.6024 17.7191 16.4822 17.8224 16.391C17.9257 16.2998 18.0562 16.2533 18.216 16.2533C18.4012 16.2533 18.5454 16.3115 18.6487 16.4298H19.1457V16.2649H19.3776V17.2872H19.1457V17.0622H18.6565ZM18.5337 16.7537C18.5337 16.6606 18.5045 16.5849 18.446 16.5249C18.3876 16.4647 18.3116 16.4356 18.216 16.4356C18.1206 16.4356 18.0426 16.4647 17.9841 16.5249C17.9257 16.583 17.8964 16.6606 17.8964 16.7537C17.8964 16.8469 17.9257 16.9225 17.9841 16.9826C18.0426 17.0409 18.1206 17.0719 18.216 17.0719C18.3116 17.0719 18.3876 17.0428 18.446 16.9826C18.5045 16.9225 18.5337 16.8469 18.5337 16.7556V16.7537ZM19.3736 17.7954C19.3736 17.9292 19.325 18.0398 19.2256 18.1213C19.1203 18.2086 18.98 18.2512 18.8007 18.2512C18.6214 18.2512 18.4811 18.2086 18.3778 18.1213C18.2784 18.0379 18.2277 17.9292 18.2277 17.7954C18.2277 17.6616 18.2784 17.5509 18.3817 17.4656C18.483 17.3803 18.6233 17.3376 18.8026 17.3376C18.9819 17.3376 19.1242 17.3803 19.2275 17.4676C19.3269 17.5509 19.3756 17.6616 19.3756 17.7954H19.3736ZM19.1378 17.7954C19.1378 17.712 19.1066 17.6441 19.0424 17.5936C18.978 17.5413 18.8982 17.5161 18.7987 17.5161C18.6993 17.5161 18.6195 17.5413 18.5551 17.5936C18.4909 17.6461 18.4597 17.712 18.4597 17.7954C18.4597 17.8788 18.4909 17.9448 18.5551 17.9952C18.6195 18.0476 18.6993 18.0728 18.7987 18.0728C18.8982 18.0728 18.978 18.0476 19.0424 17.9952C19.1066 17.9429 19.1378 17.8769 19.1378 17.7954ZM18.7617 16.7518C18.7617 16.8003 18.7559 16.8449 18.7442 16.8896H19.1437V16.6024H18.7422C18.754 16.6509 18.7617 16.6995 18.7617 16.7518Z" fill="black"/>
<path d="M21.6337 17.3998H20.7724V18.1912H20.5366V17.3998H19.7434V17.2213H21.1446V16.5618C21.1446 16.4998 21.1154 16.4687 21.055 16.4687H20.0065V16.2903H21.2674C21.3259 16.2903 21.3648 16.3018 21.3843 16.3291C21.3999 16.3485 21.4057 16.3833 21.4038 16.4338L21.359 17.2213H21.6318V17.3998H21.6337Z" fill="black"/>
<path d="M23.2849 17.6383C23.2322 17.6945 23.1289 17.7353 22.9809 17.7624C22.8912 17.778 22.6904 17.7857 22.3786 17.7857H21.8193V17.6073H22.3513V17.3493C22.2305 17.3318 22.135 17.2853 22.0648 17.2135C21.9908 17.1398 21.9538 17.0428 21.9538 16.9244C21.9538 16.8062 21.9869 16.717 22.0552 16.6432H21.8329V16.4648H22.3494V16.2164H22.5793V16.4648H23.0802V16.6432H22.8716C22.9379 16.717 22.9711 16.81 22.9711 16.9244C22.9711 17.039 22.936 17.1378 22.8658 17.2096C22.7957 17.2814 22.7002 17.3279 22.5793 17.3454V17.6053C22.7723 17.6053 22.9165 17.5976 23.0081 17.5859C23.1796 17.5646 23.2712 17.4967 23.2829 17.3803V16.263H23.5148V16.9419H23.8189V17.1203H23.5148V18.1911H23.2829V17.6363L23.2849 17.6383ZM22.7411 16.9264C22.7411 16.8527 22.7158 16.7945 22.6632 16.7499C22.6125 16.7053 22.5443 16.6839 22.4624 16.6839C22.3806 16.6839 22.3143 16.7053 22.2617 16.7499C22.209 16.7945 22.1838 16.8527 22.1838 16.9264C22.1838 17.0001 22.209 17.0583 22.2617 17.103C22.3143 17.1476 22.3806 17.1689 22.4624 17.1689C22.5443 17.1689 22.6106 17.1476 22.6632 17.103C22.7139 17.0583 22.7411 17.0001 22.7411 16.9264Z" fill="black"/>
<path d="M25.1728 17.0894L25.0716 17.2523C24.8279 17.167 24.6643 17.037 24.5804 16.8624C24.5453 16.9536 24.481 17.039 24.3855 17.1146C24.2901 17.1922 24.1848 17.2484 24.0717 17.2872L23.9666 17.1282C24.292 16.9963 24.4557 16.7964 24.4557 16.5307V16.4725H24.0387V16.2941H25.1125V16.4725H24.6934V16.5327C24.6934 16.7712 24.8552 16.9575 25.1767 17.0913L25.1728 17.0894ZM25.6114 17.7993C25.6114 17.9331 25.5626 18.0418 25.4633 18.1233C25.36 18.2086 25.2177 18.2513 25.0404 18.2513C24.863 18.2513 24.7208 18.2086 24.6174 18.1233C24.5181 18.0398 24.4694 17.9331 24.4694 17.7993C24.4694 17.6655 24.5181 17.5569 24.6174 17.4754C24.7227 17.3881 24.863 17.3454 25.0404 17.3454C25.2177 17.3454 25.36 17.39 25.4633 17.4754C25.5626 17.5588 25.6114 17.6655 25.6114 17.7993ZM25.3795 17.7993C25.3795 17.7159 25.3483 17.65 25.2839 17.5996C25.2197 17.5491 25.1397 17.5239 25.0404 17.5239C24.9409 17.5239 24.863 17.5491 24.7987 17.5996C24.7344 17.65 24.7013 17.7178 24.7013 17.7993C24.7013 17.8808 24.7344 17.9487 24.7987 17.9991C24.863 18.0496 24.9429 18.0748 25.0404 18.0748C25.1378 18.0748 25.2197 18.0496 25.2839 17.9991C25.3483 17.9487 25.3795 17.8808 25.3795 17.7993ZM25.9466 16.8295H25.6172V17.297H25.3853V16.265H25.6211V16.651H25.9485V16.8295H25.9466Z" fill="black"/>
<path d="M27.1786 16.9012C27.1786 17.0312 27.1337 17.1359 27.044 17.2155C26.9544 17.295 26.8356 17.3358 26.6874 17.3358C26.5393 17.3358 26.4204 17.295 26.3308 17.2155C26.2411 17.1359 26.1963 17.0312 26.1963 16.9012C26.1963 16.7868 26.2295 16.6937 26.2976 16.6161H26.0833V16.4377H26.5725V16.1932H26.8063V16.4396H27.2779V16.6161H27.0772C27.1454 16.6918 27.1786 16.7868 27.1786 16.9012ZM26.9447 16.9012C26.9447 16.8275 26.9213 16.7693 26.8745 16.7209C26.8277 16.6743 26.7654 16.651 26.6894 16.651C26.6134 16.651 26.551 16.6743 26.5042 16.7209C26.4574 16.7674 26.4341 16.8275 26.4341 16.9012C26.4341 16.975 26.4574 17.0332 26.5042 17.0797C26.551 17.1263 26.6134 17.1495 26.6894 17.1495C26.7654 17.1495 26.8277 17.1263 26.8745 17.0797C26.9213 17.0332 26.9447 16.973 26.9447 16.9012ZM27.8431 18.2184H26.6777C26.6192 18.2184 26.5802 18.2067 26.5569 18.1834C26.5335 18.1602 26.5218 18.1194 26.5218 18.0632V17.4832H26.7537V17.6558H27.6112V17.4832H27.8431V18.2184ZM26.7537 17.8343V17.9623C26.7537 18.0127 26.781 18.0379 26.8375 18.0379H27.6092V17.8343H26.7518H26.7537ZM27.8431 17.361H27.6092V17.2291H27.2838V17.0603H27.6092V16.8858H27.2838V16.717H27.6092V16.267H27.8431V17.3629V17.361Z" fill="black"/>
<path d="M29.7376 17.6383C29.685 17.6946 29.5817 17.7353 29.4336 17.7625C29.3439 17.778 29.1217 17.7857 28.7651 17.7857H28.1941V17.6073H28.7728V17.3649C28.6521 17.3474 28.5585 17.3009 28.4864 17.229C28.4162 17.1554 28.3811 17.0602 28.3811 16.9439C28.3811 16.8276 28.4143 16.7383 28.4805 16.6646H28.2389V16.4862H28.7728V16.2203H29.0048V16.4862H29.5212V16.6646H29.2933C29.3594 16.7383 29.3926 16.8314 29.3926 16.9439C29.3926 17.0622 29.3575 17.1573 29.2873 17.229C29.2172 17.3009 29.1237 17.3455 29.0028 17.3649V17.6073C29.2191 17.6073 29.3731 17.6015 29.4647 17.5898C29.6362 17.5685 29.7278 17.5006 29.7395 17.3842V16.2669H29.9714V18.195H29.7395V17.6403L29.7376 17.6383ZM29.1607 16.9439C29.1607 16.8702 29.1354 16.812 29.0847 16.7693C29.034 16.7267 28.9677 16.7034 28.8859 16.7034C28.804 16.7034 28.7378 16.7247 28.6872 16.7693C28.6365 16.812 28.6111 16.8702 28.6111 16.9439C28.6111 17.0176 28.6365 17.0758 28.6872 17.1185C28.7378 17.1631 28.804 17.1844 28.8859 17.1844C28.9677 17.1844 29.034 17.1631 29.0847 17.1185C29.1354 17.0758 29.1607 17.0176 29.1607 16.9439Z" fill="black"/>
<path d="M60.1632 17.4987C60.1632 18.6858 59.7812 19.6246 59.0172 20.3113C58.2533 20.9999 57.2458 21.3433 55.9946 21.3433C54.7434 21.3433 53.7164 20.9999 52.9544 20.3113C52.1904 19.6227 51.8085 18.6858 51.8085 17.4987C51.8085 16.4667 52.1125 15.6112 52.7205 14.9343H50.6274V13.4212H54.9928V11.3554H56.9788V13.4212H61.2545V14.9343H59.2511C59.8591 15.6112 60.1632 16.4648 60.1632 17.4987ZM58.2318 17.5084C58.2318 16.8295 58.0292 16.2747 57.6238 15.846C57.2184 15.4173 56.6767 15.202 55.9966 15.202C55.3164 15.202 54.7707 15.4153 54.3595 15.846C53.9483 16.2747 53.7417 16.8295 53.7417 17.5084C53.7417 18.1873 53.9483 18.7595 54.3595 19.1882C54.7707 19.6169 55.3164 19.8322 55.9966 19.8322C56.6767 19.8322 57.2184 19.6188 57.6238 19.1882C58.0292 18.7595 58.2318 18.199 58.2318 17.5084ZM65.4407 27.9502H55.2968C54.8798 27.9502 54.5816 27.8706 54.4023 27.7096C54.2231 27.5486 54.1334 27.279 54.1334 26.8988V22.963H56.1193L56.1018 25.7951C56.1018 26.2218 56.3337 26.4352 56.7995 26.4352H65.4407V27.9482V27.9502ZM67.6584 18.3172H64.8677L64.8852 23.5352H62.8993V11.9083H64.8852L64.8677 16.8043H67.6584V18.3172Z" fill="black"/>
<path d="M82.8107 23.2675L82.5242 28.2003H80.6456V24.4779C80.6456 23.9445 80.4019 23.6768 79.9128 23.6768H70.9325V22.1638H75.637V19.4035H68.8921V17.8905H80.5734V14.2728C80.5734 13.7296 80.3279 13.4562 79.8406 13.4562H71.2365V11.9431H81.9162C82.2981 11.9431 82.5516 12.0207 82.6763 12.174C82.801 12.3291 82.8458 12.6143 82.8107 13.0294L82.4891 17.8905H84.8863V19.4035H77.6053V22.1638H81.8265C82.2202 22.1638 82.4872 22.2491 82.6314 22.4179C82.7737 22.5867 82.834 22.8699 82.8107 23.2675Z" fill="black"/>
<path d="M95.8517 20.5791H88.7326C88.1971 20.5791 87.8209 20.4666 87.6066 20.2396C87.3924 20.0146 87.2844 19.6577 87.2844 19.1708V12.1023H89.2534V14.6298H93.8853V12.1023H95.8543V20.5771L95.8517 20.5791ZM93.8836 19.0661V16.1448H89.2508V18.3755C89.2508 18.8352 89.5024 19.0661 90.0032 19.0661H93.8853H93.8836ZM101.307 27.9328H91.11C90.6815 27.9328 90.3837 27.8532 90.2156 27.6922C90.0484 27.5312 89.9666 27.25 89.9666 26.8465V22.5557H91.9521L91.9347 25.7776C91.9347 26.2044 92.1663 26.4197 92.6322 26.4197H101.308V27.9328H101.307ZM103.437 17.3921H100.646L100.664 23.0542H98.6775V11.9083H100.664L100.646 15.879H103.437V17.3921Z" fill="black"/>
<path d="M113.365 18.6373C112.493 19.6946 111.254 20.2221 109.644 20.2221C108.296 20.2221 107.186 19.8361 106.317 19.0641C105.447 18.2921 105.012 17.2776 105.012 16.0186C105.012 14.7598 105.447 13.7433 106.317 12.9655C107.189 12.1876 108.298 11.7997 109.644 11.7997C111.207 11.7997 112.424 12.2982 113.293 13.2952H117.496V11.9064H119.464V20.5422H117.496V18.6373H113.362H113.365ZM112.328 16.0303C112.328 15.2447 112.081 14.6007 111.585 14.1002C111.09 13.5998 110.443 13.3495 109.644 13.3495C108.845 13.3495 108.181 13.5998 107.685 14.1002C107.191 14.6007 106.943 15.2447 106.943 16.0303C106.943 16.8159 107.191 17.4599 107.685 17.9604C108.181 18.4608 108.833 18.7111 109.644 18.7111C110.455 18.7111 111.09 18.4589 111.585 17.9506C112.081 17.4444 112.328 16.8043 112.328 16.0303ZM119.429 24.8349C119.429 25.9755 119.012 26.895 118.176 27.5952C117.293 28.3304 116.095 28.6989 114.581 28.6989C113.066 28.6989 111.885 28.3304 111.002 27.5952C110.157 26.895 109.732 25.9755 109.732 24.8349C109.732 23.6943 110.165 22.7632 111.028 22.0397C111.893 21.3162 113.076 20.9534 114.579 20.9534C116.081 20.9534 117.292 21.322 118.175 22.0572C119.009 22.7691 119.428 23.6963 119.428 24.8349H119.429ZM117.444 24.8349C117.444 24.1288 117.175 23.5566 116.638 23.1202C116.103 22.6837 115.417 22.4665 114.581 22.4665C113.745 22.4665 113.06 22.6837 112.523 23.1202C111.986 23.5566 111.718 24.1269 111.718 24.8349C111.718 25.5429 111.986 26.0958 112.523 26.5322C113.058 26.9686 113.745 27.1859 114.581 27.1859C115.417 27.1859 116.101 26.9686 116.638 26.5322C117.175 26.0958 117.444 25.5313 117.444 24.8349ZM114.259 16.0206C114.259 16.4241 114.211 16.8101 114.117 17.1786H117.498V14.7579H114.099C114.206 15.1612 114.261 15.5822 114.261 16.0226L114.259 16.0206Z" fill="black"/>
<path d="M138.536 21.5043H131.255V28.2004H129.269V21.5043H122.561V19.9913H134.404V14.4183C134.404 13.8966 134.153 13.6347 133.652 13.6347H124.796V12.1216H135.459C135.947 12.1216 136.275 12.2283 136.443 12.4417C136.574 12.6086 136.628 12.9054 136.602 13.3321L136.226 19.9913H138.534V21.5043H138.536Z" fill="black"/>
<path d="M152.487 23.5178C152.034 23.993 151.176 24.3423 149.911 24.5672C149.161 24.6972 147.462 24.7631 144.814 24.7631H140.091V23.2501H144.581V21.0776C143.554 20.9244 142.751 20.5442 142.166 19.937C141.547 19.3085 141.237 18.4938 141.237 17.4968C141.237 16.4997 141.524 15.7451 142.095 15.1284H140.216V13.6153H144.581V11.5145H146.53V13.6153H150.771V15.1284H149C149.561 15.7451 149.839 16.5346 149.839 17.4968C149.839 18.4589 149.541 19.2988 148.945 19.9098C148.348 20.5209 147.544 20.905 146.53 21.0582V23.2482C148.164 23.2365 149.376 23.1823 150.161 23.0872C151.617 22.9087 152.391 22.3268 152.486 21.3414V11.9044H154.454V17.6384H157.031V19.1514H154.454V28.1965H152.486V23.5139L152.487 23.5178ZM147.89 17.4987C147.89 16.8818 147.674 16.3853 147.238 16.0129C146.801 15.6384 146.237 15.4523 145.546 15.4523C144.855 15.4523 144.289 15.6384 143.847 16.0129C143.405 16.3872 143.186 16.8818 143.186 17.4987C143.186 18.1156 143.406 18.6122 143.847 18.9846C144.287 19.359 144.855 19.5451 145.546 19.5451C146.237 19.5451 146.801 19.359 147.238 18.9846C147.673 18.6102 147.89 18.1156 147.89 17.4987Z" fill="black"/>
<path d="M168.444 18.8702L167.585 20.2415C165.521 19.5258 164.137 18.4279 163.436 16.9478C163.138 17.7237 162.586 18.4356 161.782 19.0855C160.976 19.7353 160.09 20.2222 159.125 20.5442L158.23 19.1902C160.984 18.0709 162.363 16.3853 162.363 14.1352V13.6522H158.838V12.1391H167.909V13.6522H164.365V14.1526C164.365 16.1777 165.726 17.7489 168.444 18.8702ZM172.166 24.8699C172.166 25.9968 171.75 26.9105 170.914 27.6127C170.031 28.3362 168.84 28.6989 167.336 28.6989C165.831 28.6989 164.641 28.3362 163.758 27.6127C162.923 26.9124 162.505 25.9988 162.505 24.8699C162.505 23.7409 162.922 22.8292 163.758 22.127C164.641 21.3918 165.833 21.0233 167.336 21.0233C168.838 21.0233 170.031 21.3918 170.914 22.127C171.748 22.8273 172.166 23.7409 172.166 24.8699ZM170.198 24.8795C170.198 24.1812 169.929 23.6168 169.394 23.1862C168.858 22.7555 168.172 22.5382 167.338 22.5382C166.503 22.5382 165.831 22.7535 165.289 23.1862C164.746 23.6187 164.474 24.1832 164.474 24.8795C164.474 25.5759 164.746 26.1423 165.289 26.5729C165.831 27.0055 166.516 27.2208 167.338 27.2208C168.16 27.2208 168.858 27.0055 169.394 26.5729C169.932 26.1404 170.198 25.5779 170.198 24.8795ZM174.992 16.6802H172.202L172.22 20.6334H170.233V11.9083H172.22L172.202 15.1671H174.992V16.6802Z" fill="black"/>
<path d="M185.404 17.2853C185.404 18.3774 185.026 19.2619 184.267 19.939C183.512 20.6159 182.506 20.9534 181.253 20.9534C179.999 20.9534 178.996 20.6159 178.24 19.939C177.482 19.2619 177.104 18.3774 177.104 17.2853C177.104 16.3232 177.39 15.5221 177.963 14.8819H176.156V13.369L180.289 13.3863V11.303H182.257V13.3863L186.246 13.369V14.8819H184.546C185.119 15.524 185.404 16.3251 185.404 17.2853ZM183.418 17.2853C183.418 16.6685 183.217 16.1603 182.82 15.7626C182.42 15.365 181.898 15.1671 181.253 15.1671C180.608 15.1671 180.087 15.365 179.688 15.7626C179.288 16.1603 179.089 16.6685 179.089 17.2853C179.089 17.9022 179.288 18.393 179.688 18.7906C180.087 19.1883 180.61 19.388 181.253 19.388C181.896 19.388 182.419 19.1902 182.82 18.7906C183.219 18.393 183.418 17.8905 183.418 17.2853ZM191.022 28.4138H181.166C180.676 28.4138 180.333 28.3168 180.136 28.1209C179.939 27.925 179.84 27.5836 179.84 27.0967V22.2007H181.808V23.6614H189.054V22.2007H191.022V28.4157V28.4138ZM181.808 25.1724V26.2548C181.808 26.6855 182.048 26.9008 182.523 26.9008H189.052V25.1743H181.806L181.808 25.1724ZM191.022 21.1668H189.036V20.0456H186.283V18.6218H189.036V17.1437H186.283V15.7199H189.036V11.9103H191.022V21.1688V21.1668Z" fill="black"/>
<path d="M207.032 23.5178C206.58 23.993 205.72 24.3422 204.456 24.5672C203.704 24.6971 201.819 24.7631 198.803 24.7631H193.973V23.2501H198.857V21.2017C197.844 21.0484 197.038 20.6624 196.443 20.0475C195.846 19.4326 195.547 18.6276 195.547 17.6344C195.547 16.6413 195.829 15.9003 196.388 15.2737H194.349V13.7608H198.857V11.5164H200.825V13.7608H205.191V15.2737H203.259C203.82 15.9003 204.099 16.6878 204.099 17.6344C204.099 18.6295 203.803 19.4307 203.214 20.0397C202.624 20.6489 201.821 21.031 200.807 21.1842V23.2326C202.644 23.2326 203.943 23.1861 204.708 23.091C206.163 22.9126 206.939 22.3306 207.032 21.3452V11.9082H209.001V28.2004H207.032V23.5178ZM202.148 17.6402C202.148 17.0235 201.934 16.5307 201.506 16.1622C201.076 15.7936 200.515 15.6093 199.823 15.6093C199.132 15.6093 198.57 15.7936 198.142 16.1622C197.713 16.5307 197.499 17.0235 197.499 17.6402C197.499 18.2571 197.713 18.7498 198.142 19.1183C198.57 19.4869 199.132 19.6712 199.823 19.6712C200.515 19.6712 201.076 19.4869 201.506 19.1183C201.934 18.7498 202.148 18.2571 202.148 17.6402Z" fill="black"/>
</g>
</g>
<defs>
<clipPath id="clip0_271_145">
<rect width="209" height="40" fill="white"/>
</clipPath>
</defs>
</svg>
